<?xml version="1.0" encoding="utf-8"?>
<svg version="1.1" id="Laag_1" xmlns="http://www.w3.org/2000/svg" xmlns:xlink="http://www.w3.org/1999/xlink" x="0px" y="0px"
	 width="1215.059px" height="1291.042px" viewBox="0 0 1215.059 1291.042" enable-background="new 0 0 1215.059 1291.042"
	 xml:space="preserve">
<path opacity="0.4" fill="#82BC00" enable-background="new    " d="M196.201,110.502c20.437-29.995,29.914-55.891,29.841-81.472
	c0-4.165,3.13-7.176,7.418-7.176c7.37,0,21.3,9.35,29.997,18.021c26.079,26.131,37.321,59.512,38.397,114.616l115.005,31.46
	c18.723,5.113,34.229,18.934,41.473,36.949l5.23,13.072l54.198,17.596c23.876-49.836,53.355-86.527,86.438-107.278
	c5.639-14.369,20.504-47.093,49.024-77.797c2.561-2.726,6.213-4.345,9.803-4.345c5.133,0,9.18,3.304,10.045,8.197
	c12.164,67.772,32.678,75.489,54.418,83.679c7,2.635,14.227,5.355,21.422,9.923c35.277,22.383,49.199,45.387,65.322,72.02
	c8.723,14.418,17.752,29.337,31.277,46.363l0.963,1.162c5.648,6.706,7.074,12.938-3.23,23.13l-7.105,9.939
	c-0.566,0.8-1.258,1.813-2.053,2.982c-7.338,10.801-24.516,36.109-50.797,43.802c-24.654,7.227-55.807,11.207-62.551,12.018
	c-13.537,8.598-14.932,21.174-14.977,21.713c-0.389,1.865-30.863,105.184-45.377,142.35c36.322,7.699,98.715,4.791,155.084,0.654
	c48.742-3.57,27.654,38.248-11.529,73.176c29.869,6.686,55.547,17.068,78.988,32.36V23.471c0-12.963-10.51-23.47-23.471-23.47
	H23.595C10.631,0,0.131,10.511,0.131,23.471v388.071l160.95-212.444C166.314,177.218,177.671,137.692,196.201,110.502z"/>
<path opacity="0.4" fill="#82BC00" enable-background="new    " d="M588.972,291.231c1.951,9.365-0.483,18.771-6.516,25.146
	c-16.161,17.072-25.489,39.918-34.494,62.012c-15.578,38.215-31.716,77.725-83.852,77.725c-2.344,0-4.774-0.068-7.263-0.244
	c-16.027-1.033-32.799-5.201-49.021-9.232c-18.899-4.693-28.597-9.551-47.122-9.551c-28.535,0-63.062,40.898-72.343,48.893
	c22.63,5.426,29.547,10.135,60.445,15.229c37.633,6.256,77.492-4.199,116.3-23.672c-1.56,9.49-12.658,21.045-11.903,20.875
	c102.419-24.389,137.849,27.543,201.964,24.008c12.654-36.98,34.6-105.385,39.25-124.832c0.395-3.205,3.324-19.895,21.484-30.676
	l1.049-0.633l1.232-0.139c0.346-0.037,35.621-4.076,61.885-11.764c22.334-6.55,37.896-29.459,44.543-39.258
	c0.854-1.264,1.59-2.341,2.199-3.199l8.074-11.119c4.291-4.18,4.498-5.753,4.498-5.818c-0.104-0.265-1.041-1.378-1.658-2.108
	l-1.174-1.417c-13.973-17.588-23.617-33.521-32.117-47.562c-16.002-26.449-28.645-47.325-61.666-68.285
	c-6.193-3.927-12.578-6.326-19.332-8.864c-23.596-8.89-47.99-18.081-61.367-90.832c-0.18,0.104-0.348,0.232-0.508,0.397
	c-28.377,30.593-42.594,63.255-47.379,75.873l-0.701,1.835l-1.678,1.019c-31.062,18.922-59.833,54.552-83.001,102.132l44.604,14.478
	C581.463,275.043,587.115,282.301,588.972,291.231z"/>
<path opacity="0.4" fill="#82BC00" enable-background="new    " d="M618.049,1029.136c-0.834,18.289,6.607,40.719,15.064,56.959
	c-34.713-27.686-56.366-65.459-78.335-130.113c-28.492-92.057-38.958-120.133-94.418-170.746c2.192,9.186,1.457,15.543-0.815,22.053
	c-31.667-73.52-72.475-116.643-137.053-135.15c-24.307-7.004-46.454-0.797-66.303-12.479c-11.007-6.461-25.604-24.495-29.202-38.969
	c-3.876-15.465,37.159-8.383,52.696-18.146c-18.342-5.477-36.557-18.979-50.998-34.328c-12.447,15.027-31.333,36.561-53.42,61.135
	c26.875,24.188,52.099,58.034,57.37,96.485c5.677-0.682,11.24-1.018,16.576-1.018c50.88,0,83.185,29.895,90.987,84.195
	c0.78,4.918,3.483,8.482,6.597,12.617c3.451,4.568,7.351,9.744,8.568,17.283c6.521,43.818-31.53,61.547-68.313,78.684
	c-44.581,20.742-86.72,40.381-68.753,102.178c9.706,3.344,19.524,6.049,29.04,8.666l2.786,0.768l1.046,1.297
	c10.717,13.326,13.994,23.836,10.019,32.117c-6.251,13.029-29.018,17.412-74.12,14.488c-6.884,1.115-12.669,2.348-17.629,3.404
	c-7.176,1.531-12.847,2.742-17.874,2.742c-13.137,0-20.11-8.764-28.375-26.006c-19.568-2.301-36.12-2.592-54.404-3.689
	c-34.66-2.064-43.981,8.283-67.995,12.645c-0.213,0.035-0.44,0.074-0.66,0.121v23.625c0,12.965,10.5,23.477,23.465,23.477h665.692
	C660.338,1092.605,632.492,1063.179,618.049,1029.136z"/>
<path opacity="0.4" fill="#82BC00" enable-background="new    " d="M20.637,789.91c3.724,0.115,34.093,2.256,47.266,3.566
	c16.207,1.598,27.877-3.879,39.093-7.625c4.28-1.432,8.656-2.898,13.267-4.129c-18.167-15.748-26.956-30.273-36.978-52.418
	c-20.357,21.684-49.496,43.832-67.396,60.447C17.612,789.816,19.228,789.865,20.637,789.91z"/>
<path opacity="0.4" fill="#82BC00" enable-background="new    " d="M578.654,293.374c-1.156-5.553-4.492-9.992-8.923-11.876
	l-45.412-14.734l-10.995-3.568l-57.705-18.72l-7.066-17.647c-6.017-14.979-18.896-26.454-34.47-30.703l-122.671-33.554l-0.036-3.976
	c-0.593-54.446-10.819-86.687-35.365-111.263c-6.701-6.671-14.874-11.901-19.516-13.98c-0.915,26.369-11.036,52.91-31.599,83.092
	c-17.886,26.234-28.888,65.247-33.831,86.16l-0.259,1.081l-0.673,0.891L0.129,429.017v360.092c0-0.201,52.433-44.541,78.546-70.107
	c-1.473-3.43-3.258-7.721-4.864-11.506l-4.546-10.648c-8.597-11.539-45.722-63.502-35.381-84.94c1.978-4.105,6.503-9.043,16.81-9.34
	c16.282,0,52.32,33.688,78.413,60.5c-13.539-26.678-26.224-56.477-20.846-65.78c2.35-4.07,7.062-5.438,12.937-3.254
	c12.289,4.598,29.038,14.469,45.861,28.264c23.353-25.639,42.979-47.594,54.916-61.621c-15.64-18.828-25.018-38.887-21.805-49.818
	c-7.488-10.145-12.675-21.25-7.988-29.59c5.25-9.34,28.771-7.152,48.25-3.811c4.022,0.693,7.896,1.43,11.371,2.125
	c2.856,0.574,5.478,1.123,7.718,1.586c1.654,0.342,16.558,2.008,18.16,2.363c6.898-8.803,50.839-56.988,83.023-56.988
	c19.812,0,30.139,5.02,49.656,9.863c16.506,4.105,32.082,7.973,47.155,8.967c2.258,0.141,4.453,0.207,6.587,0.207
	c45.071,0,58.522-32.98,74.083-71.168c9.378-22.998,19.085-46.771,36.604-65.273C578.4,305.321,579.88,299.282,578.654,293.374z"/>
<path opacity="0.4" fill="#82BC00" enable-background="new    " d="M0.131,799.478v1.051c0.341-0.344,0.683-0.701,1.021-1.039
	C0.812,799.484,0.471,799.478,0.131,799.478z"/>
<path opacity="0.4" fill="#82BC00" enable-background="new    " d="M345.127,840.486c-0.79-4.916-3.484-8.492-6.6-12.615
	c-3.462-4.57-7.364-9.754-8.578-17.305c-7.089-49.352-35.012-75.398-80.735-75.398c-6.474,0-13.315,0.562-20.341,1.633l-5.483,0.855
	l-0.478-5.523c-3.3-37.967-28.004-71.514-54.453-95.215c-2.758-2.473-5.516-4.824-8.285-7.074
	c-15.629-12.686-31.173-21.816-42.601-26.088c-0.215-0.078-0.396-0.135-0.56-0.195c-0.618,6.662,8.008,27.684,19.908,51.627
	c1.725,3.459,3.494,6.965,5.336,10.521c4.85,9.367,10.059,18.916,15.301,28.033l24.795,43.143l-33.146-37.104
	c-5.696-6.377-12.226-13.453-19.171-20.74c-2.521-2.662-5.102-5.336-7.718-8.02c-28.074-28.815-60.124-58.086-71.201-58.086
	c-6.293,0.176-7.444,2.58-7.884,3.477c-5.726,11.869,16.845,50.846,34.719,74.731l0.607,1.059l4.812,11.248
	c0.953,2.242,1.854,4.393,2.771,6.482c1.696,3.982,3.3,7.676,4.844,11.176c11.857,26.842,20.569,41.137,44.114,59.324l9.576,7.396
	l-11.96,1.836c-8.018,1.211-15.021,3.559-22.41,6.02c-11.991,4.01-24.411,8.168-42.375,8.168c-9.247,0-17.117-1.537-29.215-2.691
	c-11.425-1.09-17.108-1.164-22.799-1.318c-4.424-0.119-9.354-0.24-14.74-0.34c-0.337,0.34-0.679,0.695-1.02,1.039v255.244
	c5.101-0.963,15.574-4.871,18.605-6.014c0.76-3.438,4.708-3.887,11.664-4.648l9.182-1.793l0.031,0.902l0.832-0.066l-0.006,0.066
	c2.834-0.197,6.156-0.359,9.79-0.506c4.763-0.311,10.044-0.449,15.872-0.316c19.63,0,40.204,1.309,61.173,3.885l2.862,0.352
	l1.208,2.613c9.782,21.045,14.351,22.627,20.213,22.627c3.934,0,9.13-1.117,15.7-2.521c5.246-1.121,11.408-2.428,18.737-3.592
	l0.589-0.1l0.573,0.039c8.859,0.594,16.922,0.893,23.964,0.893c31.484,0,39.026-5.941,40.714-9.475
	c1.899-3.945-0.842-10.965-7.719-19.826c-10.361-2.855-21.045-5.814-31.771-9.633l-2.43-0.887l-0.77-2.469
	c-22.515-72.396,28.499-96.168,73.529-117.133C319.055,891.242,350.488,876.595,345.127,840.486z"/>
<path opacity="0.4" fill="#F38B00" enable-background="new    " d="M1191.508,0.001H940.492c-12.961,0-23.461,10.51-23.461,23.47
	v1066.481c0,12.965,10.508,23.475,23.461,23.475h251.016c12.959,0,23.461-10.514,23.461-23.475V23.472
	C1214.967,10.512,1204.463,0.001,1191.508,0.001z M971.26,64.872c0-10.321,3.518-11.966,11.275-12.206
	c17.367-0.701,17.604-0.938,33.801-0.701c5.635,0.242,10.334,3.75,10.334,12.907v35.216c0,12.907-4.93,13.378-11.037,13.378h-33.1
	c-5.643,0-11.273-0.472-11.273-13.612V64.872L971.26,64.872z M971.26,130.839c0-6.106,2.584-7.048,6.111-7.274
	c11.732-0.694,24.65-0.471,60.09-0.694c3.994,0,4.92-2.592,4.92-11.51c0-1.17-0.461-2.349,0-38.729
	c0-7.283,8.695-7.283,12.221-7.283h25.809c3.764,0,11.043,1.178,11.043,8.457v34.268c0,10.329,0,14.321,10.105,14.321h54.912
	c8.924,0,8.924,5.634,8.924,8.45v46.242c0,3.76-0.229,9.157-9.396,9.157H976.889c-3.277-0.468-5.633-2.112-5.633-9.157
	L971.26,130.839L971.26,130.839z M971.26,226.138c0-10.313,3.518-11.966,11.275-12.197c17.367-0.708,17.604-0.938,33.801-0.708
	c5.635,0.24,10.334,3.764,10.334,12.905v35.223c0,12.9-4.93,13.377-11.037,13.377h-33.1c-5.643,0-11.273-0.478-11.273-13.618
	V226.138L971.26,226.138z M971.26,292.11c0-6.104,2.584-7.047,6.111-7.28c11.732-0.698,24.65-0.458,60.09-0.698
	c3.994,0,4.92-2.582,4.92-11.5c0-1.168-0.461-2.348,0-38.729c0-7.281,8.695-7.281,12.221-7.281h25.809
	c3.764,0,11.043,1.177,11.043,8.456v34.271c0,10.32,0,14.312,10.105,14.312h54.912c8.924,0,8.924,5.638,8.924,8.456v46.229
	c0,3.757-0.229,9.16-9.396,9.16H976.889c-3.277-0.474-5.633-2.112-5.633-9.16L971.26,292.11L971.26,292.11z M1165.401,384.37v35.68
	c0,13.145-5.637,13.605-11.271,13.605h-33.1c-6.104,0-11.037-0.461-11.037-13.371v-35.223c0-9.148,4.689-12.91,10.334-12.91h33.797
	C1161.873,372.153,1165.401,374.036,1165.401,384.37z M971.031,450.325c0-2.814,0-8.457,8.914-8.457
	c109.396,0,162.684,0,179.348,0.244c3.52,0,6.102,1.172,6.102,7.273v47.182c0,7.051-2.352,8.688-5.645,9.168H980.42
	c-9.168,0-9.396-5.4-9.396-9.168L971.031,450.325L971.031,450.325z M1068.922,537.433c47.404,0,98.354,39.898,98.354,88.729
	c0,2.592-1.17,8.676-4.934,8.676h-46.475c-14.311,0-7.738-34.744-48.123-34.744c-37.785,0-33.807,34.516-45.529,34.516h-45.547
	c-4.691,0-7.273-3.748-7.273-8.682C969.389,567.94,1026.432,537.433,1068.922,537.433z M1165.629,995.654
	c-0.229,2.574,0,5.633-3.52,8.221l-183.105,64.08c-7.029,0-7.5-3.994-7.5-18.309v-29.582c0-10.092,0.697-14.312,8.92-17.131
	c42.715-15.258,80.752-28.639,123.934-43.424c3.062-1.418,7.277-3.527,7.277-6.107v-24.648c0-3.518,3.752-3.518,6.104-3.518
	c7.521,0,31.457,10.092,38.969,12.432c4.221,1.881,8.912,2.824,8.912,10.342L1165.629,995.654L1165.629,995.654z M1165.629,870.535
	c-0.229,2.588,0,5.645-3.52,8.221l-87.316,30.043c6.324,2.357,12.914,4.459,19.721,6.578c4.453,1.412,9.85,3.994,9.85,8.449V947.3
	c0,1.877-31.215,15.725-47.404,15.725c-2.111,0-4.004-0.23-5.402-0.713c-12.91-4.221-27.225-9.145-51.871-19.006
	c-12.684-4.93-27.475-11.975-27.701-19.244c-0.473-11.975-0.715-14.549-0.715-29.109c0-10.086,0.939-14.32,9.168-17.131
	c42.717-15.258,80.752-28.645,123.936-43.432c3.062-1.406,7.275-3.52,7.275-6.102v-24.652c0-3.518,3.754-3.518,6.105-3.518
	c7.52,0,31.455,10.094,38.967,12.439c4.221,1.873,8.912,2.812,8.912,10.328L1165.629,870.535L1165.629,870.535z M971.504,794.25
	v-37.328c0-4.936,2.58-7.289,7.5-7.289c43.898,12.924,84.043,30.523,115.508,40.619c4.453,1.402,9.852,3.998,9.852,8.447v23.475
	c0,1.875-31.215,15.723-47.404,15.723c-2.113,0-4.004-0.236-5.402-0.695c-12.91-4.227-27.225-9.164-51.871-19.023
	C978.551,809.736,971.504,809.271,971.504,794.25z M1069.387,742.593c-42.482,0-99.523-30.518-99.523-88.492
	c0-4.936,2.584-8.686,7.275-8.686h45.541c11.73,0,8.219,34.5,45.518,34.5c40.385,0,33.812-34.5,48.131-34.5h46.486
	c3.75,0,4.926,6.104,4.926,8.686C1167.742,702.921,1116.805,742.593,1069.387,742.593z"/>
<g opacity="0.4">
	<g>
		<path fill="#F38B00" d="M39.234,1286.886H6.577c-2.665,0-6.487-0.16-6.487-6.627v-126.41c0.337-2.34,1.501-3.984,6.487-3.984
			h32.657c4.329,0,4.991,1.799,5.157,4.297c0.819,14.785,0.819,29.213,0.819,126.42C45.213,1286.886,41.23,1286.886,39.234,1286.886
			z M55.828,1287.056c-4.813,0-5.31-1.639-5.31-3.646v-27.205c0-3.986,3.156-11.959,11.278-11.959
			c11.122,0,17.424-10.111,17.424-24.695c0-11.77-6.809-25.078-17.424-25.078c-2.802,0-11.278-2.961-11.278-9.934v-28.863
			c0-4.336,5.144-5.975,8.637-5.975c38.471,0,66.003,32.668,66.003,69.682C125.165,1257.542,93.329,1287.056,55.828,1287.056z"/>
		<path fill="#F38B00" d="M186.718,1286.886h-32.7c-2.643,0-6.459-0.16-6.459-6.627v-126.57c0.332-2.35,1.495-3.986,6.459-3.986
			h33.518c4.325,0,5.146,1.812,5.146,4.299v126.58C192.68,1286.886,188.713,1286.886,186.718,1286.886z"/>
		<path fill="#F38B00" d="M297.01,1234.638H272.78c-7.293,0-10.093,0-10.093,7.133v38.822c0,6.299-4.004,6.299-5.985,6.299h-32.668
			c-2.649,0-6.487-0.158-6.487-6.623v-126.58c0.332-2.346,1.495-3.984,6.487-3.984h32.671c4.307,0,4.966,1.816,5.132,4.297
			c0.504,8.309,0.335,17.439,0.504,42.48c0,2.812,1.83,3.486,8.132,3.486c0.843,0,1.661-0.344,27.364,0
			c5.146,0,5.146,6.127,5.146,8.621v18.252C302.983,1229.488,302.172,1234.638,297.01,1234.638z M303.304,1188.847H278.43
			c-9.124,0-9.455-3.486-9.455-7.807v-23.379c0-3.984,0.338-7.961,9.621-7.961h24.708c7.305,0,8.477,2.482,8.64,7.961
			c0.496,12.266,0.662,12.439,0.496,23.875C312.268,1185.541,309.774,1188.847,303.304,1188.847z M303.304,1286.886H278.43
			c-9.124,0-9.455-3.479-9.455-7.791v-23.393c0-3.99,0.338-7.959,9.621-7.959h24.708c7.305,0,8.477,2.492,8.64,7.959
			c0.496,12.271,0.662,12.436,0.496,23.871C312.268,1283.572,309.774,1286.886,303.304,1286.886z"/>
		<path fill="#F38B00" d="M373.96,1286.886h-32.659c-2.662,0-6.483-0.16-6.483-6.627v-126.41c0.354-2.34,1.508-3.984,6.483-3.984
			h33.497c4.312,0,5.157,1.799,5.157,4.297v126.42C379.952,1286.886,375.962,1286.886,373.96,1286.886z M454.765,1286.886h-39.994
			c-3.478,0-4.3-1.639-6.11-3.479c-7.649-14.916-14.452-31.873-21.247-47.268c-1.018-2.508-1.018-11.801-1.018-16.102
			c0-9.295,1.184-15.756,5.98-15.756c8.789,0,13.614-5.646,13.614-12.271c0-4.977-4.479-9.799-13.939-9.799
			c-4.979,0-6.462-1.664-6.462-15.109v-10.115c0-4.318,4.294-6.961,8.613-6.961c39.987,0,56.072,8.949,56.072,41.473
			c0,13.939-7.96,29.029-19.4,33.186c0.162,0.158,0.328,3.816,25.541,58.715C456.418,1285.062,456.418,1286.056,454.765,1286.886z"
			/>
		<path fill="#F38B00" d="M551.633,1234.638h-24.233c-7.29,0-10.134,0-10.134,7.133v38.822c0,6.299-3.965,6.299-5.958,6.299H478.62
			c-2.644,0-6.475-0.158-6.475-6.623v-126.58c0.339-2.346,1.495-3.984,6.475-3.984h32.688c4.329,0,4.971,1.816,5.144,4.297
			c0.49,8.309,0.32,17.439,0.49,42.48c0,2.812,1.84,3.486,8.146,3.486c0.821,0,1.65-0.344,27.344,0c5.146,0,5.146,6.127,5.146,8.621
			v18.252C557.585,1229.488,556.766,1234.638,551.633,1234.638z M557.93,1188.847h-24.871c-9.151,0-9.474-3.486-9.474-7.807v-23.379
			c0-3.984,0.328-7.961,9.633-7.961h24.711c7.296,0,8.457,2.482,8.62,7.961c0.494,12.266,0.669,12.439,0.494,23.875
			C566.88,1185.541,564.38,1188.847,557.93,1188.847z M557.93,1286.886h-24.871c-9.151,0-9.474-3.479-9.474-7.791v-23.393
			c0-3.99,0.328-7.959,9.633-7.959h24.711c7.296,0,8.457,2.492,8.62,7.959c0.494,12.271,0.669,12.436,0.494,23.871
			C566.88,1283.572,564.38,1286.886,557.93,1286.886z"/>
		<path fill="#F38B00" d="M702.397,1285.062c0,1.002-2.66,1.822-3.488,1.822h-31.846c-4.299,0-6.465-1.822-7.299-2.645
			c-18.566-31.527-39.303-68.021-55.563-94.734c-3.31-5.305-14.77,1.004-14.77-8.625V1156.5c0-4.322,3.48-6.803,7.797-6.803
			l27.717,0.172c4.961,0,7.291,2.959,8.785,4.297c17.582,31.865,35.838,62.717,54.74,93.574c3.666,4.641,14.768,0,14.768,5.961
			v27.873C703.231,1282.585,702.397,1285.062,702.397,1285.062z M621.264,1286.886h-25.376c-2.485,0-6.141-0.16-6.141-3.973v-84.615
			c0-2.824,1.164-5.803,2.496-5.803c1.664,0,3.98-0.158,6.648-0.158c5.303,6.301,21.873,36.49,27.365,46.777
			c0.676,8.791,0.676,12.42,0.676,43.973C626.932,1286.224,623.112,1286.886,621.264,1286.886z M700.903,1244.24
			c-1.662,0-3.979,0.174-6.645,0.174c-5.299-6.307-21.893-36.486-27.352-46.76c-0.68-8.809-0.68-12.461-0.68-43.973
			c0-3.154,3.818-3.811,5.648-3.811h25.367c2.482,0,6.143,0.158,6.143,3.979v84.598
			C703.391,1241.269,702.235,1244.24,700.903,1244.24z"/>
		<path fill="#F38B00" d="M790.637,1266.81h-30.688c-5.645,15.109-5.645,20.068-16.258,20.068H724.28
			c-3.5,0-5.135-1.826-5.135-5.305c9.939-31.004,18.402-57.736,26.043-79.969c0.998-3.145,2.852-6.963,5.975-6.963h13.432
			c6.471,0,10.627,17.59,10.627,20.562l-3.812,15.098c0,6.172,9.955,0.85,11.436,5.336l9.465,27.695
			C792.301,1264.833,791.625,1266.318,790.637,1266.81z M838.408,1286.886h-20.887c-7.131,0-10.125-0.5-12.127-6.305
			c-10.783-30.182-20.23-57.074-30.676-87.582c-0.998-2.154-2.498-5.15-4.307-5.15h-17.43c-2.494,0-2.494-2.662-2.494-4.293
			c0-2.01,7.135-22.254,8.793-27.553c1.332-2.99,2.654-6.303,7.299-6.303h33.666c1.834,0.176,3.992,0,5.803,2.479l45.291,129.408
			C851.348,1286.56,848.53,1286.886,838.408,1286.886z"/>
		<path fill="#F38B00" d="M906.246,1286.886h-32.689c-2.65,0-6.461-0.16-6.461-6.627v-126.41c0.34-2.34,1.494-3.984,6.461-3.984
			h33.518c4.324,0,5.146,1.799,5.146,4.297v126.42C912.221,1286.886,908.217,1286.886,906.246,1286.886z M987.045,1286.886h-39.986
			c-3.488,0-4.314-1.639-6.123-3.479c-7.645-14.916-14.447-31.873-21.271-47.268c-0.979-2.508-0.979-11.801-0.979-16.102
			c0-9.295,1.154-15.756,5.977-15.756c8.783,0,13.594-5.646,13.594-12.271c0-4.977-4.486-9.799-13.938-9.799
			c-4.975,0-6.473-1.664-6.473-15.109v-10.115c0-4.318,4.318-6.961,8.635-6.961c39.963,0,56.074,8.949,56.074,41.473
			c0,13.939-7.975,29.029-19.404,33.186c0.146,0.158,0.328,3.816,25.547,58.715C988.705,1285.062,988.705,1286.056,987.045,1286.886
			z"/>
		<path fill="#F38B00" d="M1096.006,1188.847h-89.59c-9.107,0-9.445-3.486-9.445-7.807v-23.379c0-3.984,0.338-7.961,9.605-7.961
			h89.93c7.293,0,8.619,2.482,8.619,7.961v23.875C1105.125,1185.541,1102.473,1188.847,1096.006,1188.847z M1067.635,1286.886
			h-32.695c-2.643,0-6.461-0.16-6.461-6.627v-82.115c0.342-2.328,1.496-3.998,6.461-3.998h32.695c4.324,0,4.988,1.832,5.146,4.324
			c0.836,14.771,0.836,26.375,0.836,82.111C1073.617,1286.886,1069.619,1286.886,1067.635,1286.886z"/>
		<path fill="#F38B00" d="M1194.703,1185.025c-0.828,1.818-1.674,1.818-3.33,1.818c-6.131,0-11.422-5.297-18.229-5.297
			c-2.66,0-8.807,2.648-8.807,6.143c0,5.816,9.797,8.127,9.797,11.604v0.512c-6.303,12.438-16.092,34.836-19.088,34.836
			c-3.484,0-5.639-1.664-7.961-2.65c-18.234-7.807-27.873-20.912-27.873-40.805c0-26.051,24.395-45.141,48.623-45.141
			c12.117,0,25.203,3.66,34.848,10.299c1.643,1.158,2.465,2.65,2.465,4.469C1203.166,1169.767,1198.676,1176.74,1194.703,1185.025z
			 M1164.334,1291.042c-15.27,0-33.842-1.988-44.303-14.758l-0.818-2.666c0.334-3.643,7.812-26.867,14.768-26.867h2.652l7.801,4.305
			c5.162,2.824,9.459,4.311,15.596,4.311c5.143,0,13.109-0.811,13.109-7.791c0-6.975-6.812-8.146-10.627-10.627
			c4.314-8.953,11.619-23.051,14.936-31.012c1.658-1.834,2.504-2.652,5.15-2.652c4.305,0,7.787,1.83,12.105,4.303
			c12.27,6.982,20.062,21.723,20.062,35.688C1214.772,1271.304,1190.869,1291.042,1164.334,1291.042z"/>
	</g>
</g>
</svg>
