<?xml version="1.0" encoding="utf-8"?>
<!-- Generator: Adobe Illustrator 16.0.0, SVG Export Plug-In . SVG Version: 6.00 Build 0)  -->
<svg version="1.2" baseProfile="tiny" xmlns="http://www.w3.org/2000/svg" xmlns:xlink="http://www.w3.org/1999/xlink" x="0px"
	 y="0px" width="550px" height="179.508px" viewBox="-666.419 -1164.588 550 179.508" xml:space="preserve">
<g id="Laag_2">
</g>
<g id="Laag_1">
	<g id="Layer_2">
		<path fill="#95C11F" d="M-603.675-1129.78c2.229-3.272,3.263-6.097,3.255-8.887c0-0.455,0.342-0.783,0.809-0.783
			c0.804,0,2.324,1.02,3.272,1.966c2.845,2.85,4.071,6.491,4.189,12.502l12.545,3.432c2.042,0.558,3.733,2.065,4.523,4.03
			l0.571,1.426l5.913,1.919c2.604-5.436,5.82-9.438,9.429-11.702c0.616-1.568,2.237-5.137,5.348-8.486
			c0.279-0.298,0.677-0.475,1.069-0.475c0.56,0,1.001,0.36,1.096,0.895c1.327,7.393,3.564,8.234,5.936,9.126
			c0.764,0.288,1.553,0.586,2.337,1.083c3.848,2.442,5.367,4.951,7.125,7.856c0.952,1.573,1.937,3.2,3.412,5.057l0.105,0.126
			c0.616,0.731,0.771,1.412-0.353,2.523l-0.775,1.084c-0.062,0.087-0.138,0.198-0.225,0.325c-0.8,1.179-2.674,3.938-5.541,4.778
			c-2.689,0.788-6.087,1.222-6.823,1.31c-1.477,0.938-1.629,2.311-1.634,2.369c-0.042,0.203-3.367,11.474-4.95,15.528
			c3.962,0.839,10.769,0.523,16.917,0.071c5.317-0.39,3.017,4.172-1.258,7.982c3.259,0.729,6.06,1.862,8.617,3.53v-68.084
			c0-1.414-1.146-2.561-2.56-2.561h-91.179c-1.415,0-2.56,1.147-2.56,2.561v42.332l17.557-23.174
			C-606.935-1122.502-605.697-1126.814-603.675-1129.78z"/>
		<path fill="#95C11F" d="M-560.83-1110.065c0.214,1.021-0.052,2.048-0.71,2.743c-1.763,1.862-2.78,4.354-3.763,6.765
			c-1.7,4.168-3.459,8.479-9.147,8.479c-0.255,0-0.521-0.007-0.792-0.027c-1.749-0.112-3.578-0.567-5.348-1.006
			c-2.061-0.512-3.119-1.042-5.139-1.042c-3.113,0-6.879,4.461-7.892,5.333c2.468,0.592,3.223,1.106,6.594,1.662
			c4.104,0.683,8.453-0.458,12.686-2.583c-0.169,1.036-1.381,2.296-1.298,2.278c11.172-2.661,15.037,3.005,22.031,2.619
			c1.381-4.034,3.774-11.495,4.282-13.617c0.042-0.35,0.362-2.171,2.343-3.346l0.115-0.069l0.135-0.015
			c0.038-0.004,3.885-0.444,6.75-1.284c2.437-0.715,4.135-3.213,4.859-4.282c0.093-0.138,0.174-0.255,0.24-0.349l0.88-1.212
			c0.469-0.456,0.492-0.628,0.492-0.635c-0.012-0.029-0.115-0.151-0.181-0.23l-0.128-0.155c-1.523-1.919-2.576-3.656-3.503-5.188
			c-1.746-2.885-3.125-5.163-6.727-7.449c-0.676-0.429-1.372-0.691-2.108-0.967c-2.574-0.97-5.235-1.973-6.694-9.908
			c-0.02,0.011-0.039,0.025-0.055,0.043c-3.097,3.337-4.647,6.9-5.168,8.276l-0.077,0.201l-0.183,0.111
			c-3.388,2.064-6.527,5.951-9.054,11.141l4.865,1.58C-561.649-1111.831-561.032-1111.04-560.83-1110.065z"/>
		<path fill="#95C11F" d="M-620.665-1027.933l-0.091,0.008l-0.003-0.099l-1.002,0.195c-0.759,0.083-1.189,0.132-1.273,0.507
			c0.057-0.022,0.097-0.037,0.097-0.037s1.146-0.479,3.338-0.623c-0.396,0.016-0.759,0.035-1.068,0.056L-620.665-1027.933z"/>
		<path fill="#95C11F" d="M-611.193-1027.591c-2.288-0.281-4.532-0.424-6.673-0.424
			C-615.726-1027.965-613.481-1027.872-611.193-1027.591z"/>
		<path fill="#95C11F" d="M-557.657-1029.572c-0.092,1.995,0.721,4.441,1.643,6.214c-3.786-3.021-6.149-7.14-8.545-14.194
			c-3.108-10.042-4.25-13.104-10.299-18.625c0.24,1.002,0.159,1.695-0.089,2.405c-3.455-8.02-7.906-12.724-14.95-14.743
			c-2.651-0.763-5.068-0.086-7.233-1.361c-1.2-0.705-2.792-2.671-3.186-4.25c-0.423-1.687,4.054-0.915,5.749-1.98
			c-2-0.597-3.988-2.07-5.563-3.745c-1.358,1.64-3.417,3.988-5.827,6.669c2.932,2.638,5.683,6.33,6.258,10.525
			c0.62-0.075,1.226-0.111,1.808-0.111c5.55,0,9.075,3.261,9.925,9.185c0.085,0.536,0.38,0.925,0.72,1.376
			c0.376,0.499,0.801,1.063,0.934,1.886c0.711,4.78-3.439,6.713-7.452,8.583c-4.862,2.263-9.459,4.405-7.499,11.146
			c1.058,0.364,2.13,0.66,3.167,0.946l0.304,0.083l0.114,0.141c1.169,1.455,1.527,2.6,1.093,3.503
			c-0.682,1.422-3.166,1.9-8.085,1.58c-0.751,0.122-1.382,0.257-1.923,0.372c-0.783,0.167-1.402,0.299-1.95,0.299
			c-1.433,0-2.193-0.955-3.094-2.836c-2.135-0.252-3.941-0.283-5.936-0.402c-3.781-0.225-4.797,0.903-7.417,1.378
			c-0.024,0.004-0.048,0.009-0.072,0.014v2.578c0,1.414,1.146,2.561,2.56,2.561h72.616
			C-553.046-1022.648-556.083-1025.858-557.657-1029.572z"/>
		<path fill="#95C11F" d="M-622.826-1055.668c0.407,0.013,3.72,0.248,5.156,0.389c1.768,0.175,3.042-0.423,4.265-0.832
			c0.467-0.155,0.944-0.315,1.448-0.449c-1.982-1.718-2.941-3.303-4.034-5.718c-2.221,2.365-5.4,4.781-7.352,6.593
			C-623.156-1055.678-622.979-1055.673-622.826-1055.668z"/>
		<path fill="#95C11F" d="M-561.956-1109.832c-0.126-0.606-0.49-1.09-0.973-1.295l-4.954-1.608l-1.199-0.389l-6.295-2.042
			l-0.771-1.924c-0.655-1.635-2.061-2.886-3.76-3.351l-13.381-3.66l-0.003-0.434c-0.064-5.939-1.181-9.456-3.858-12.137
			c-0.729-0.728-1.621-1.298-2.128-1.524c-0.099,2.875-1.203,5.771-3.446,9.063c-1.95,2.861-3.151,7.117-3.691,9.398l-0.028,0.117
			l-0.073,0.098l-18.546,24.483v39.28c0-0.022,5.719-4.859,8.568-7.647c-0.161-0.375-0.356-0.842-0.53-1.256l-0.497-1.162
			c-0.937-1.259-4.987-6.927-3.859-9.265c0.216-0.448,0.709-0.987,1.833-1.019c1.776,0,5.708,3.674,8.553,6.599
			c-1.476-2.91-2.86-6.161-2.273-7.175c0.256-0.445,0.771-0.594,1.411-0.356c1.34,0.502,3.167,1.579,5.003,3.083
			c2.547-2.796,4.688-5.191,5.991-6.722c-1.707-2.055-2.729-4.242-2.379-5.435c-0.817-1.106-1.382-2.318-0.871-3.228
			c0.573-1.02,3.138-0.78,5.263-0.416c0.439,0.075,0.862,0.156,1.241,0.232c0.312,0.062,0.598,0.123,0.842,0.172
			c0.18,0.038,1.806,0.22,1.981,0.258c0.752-0.959,5.546-6.216,9.057-6.216c2.161,0,3.288,0.547,5.416,1.076
			c1.8,0.448,3.5,0.87,5.144,0.978c0.246,0.016,0.486,0.023,0.718,0.023c4.917,0,6.383-3.598,8.082-7.764
			c1.023-2.508,2.082-5.102,3.993-7.12C-561.983-1108.528-561.823-1109.188-561.956-1109.832z"/>
		<path fill="#95C11F" d="M-625.063-1054.624v0.115c0.037-0.038,0.075-0.076,0.111-0.114
			C-624.989-1054.623-625.026-1054.624-625.063-1054.624z"/>
		<path fill="#95C11F" d="M-587.429-1050.15c-0.086-0.537-0.38-0.926-0.72-1.377c-0.377-0.498-0.804-1.064-0.936-1.888
			c-0.773-5.383-3.819-8.223-8.807-8.223c-0.706,0-1.452,0.06-2.219,0.178l-0.599,0.092l-0.051-0.603
			c-0.36-4.142-3.055-7.801-5.94-10.387c-0.301-0.27-0.602-0.526-0.903-0.771c-1.706-1.384-3.401-2.38-4.647-2.846
			c-0.023-0.009-0.043-0.015-0.061-0.022c-0.068,0.728,0.873,3.02,2.171,5.632c0.188,0.377,0.381,0.759,0.582,1.147
			c0.529,1.022,1.098,2.064,1.668,3.058l2.705,4.707l-3.616-4.048c-0.621-0.695-1.333-1.467-2.091-2.262
			c-0.275-0.291-0.557-0.581-0.843-0.875c-3.062-3.144-6.559-6.336-7.766-6.336c-0.687,0.019-0.812,0.282-0.86,0.379
			c-0.624,1.295,1.838,5.546,3.788,8.152l0.065,0.116l0.525,1.227c0.104,0.246,0.203,0.479,0.303,0.708
			c0.185,0.434,0.359,0.836,0.528,1.219c1.293,2.927,2.244,4.487,4.812,6.471l1.045,0.807l-1.305,0.201
			c-0.875,0.132-1.638,0.388-2.444,0.657c-1.309,0.438-2.664,0.89-4.623,0.89c-1.009,0-1.867-0.167-3.188-0.293
			c-1.246-0.119-1.866-0.127-2.486-0.144c-0.483-0.013-1.021-0.026-1.608-0.037c-0.036,0.037-0.073,0.075-0.11,0.113v27.843
			c0.555-0.106,1.699-0.532,2.03-0.657c0.083-0.375,0.514-0.424,1.272-0.506l1.001-0.196l0.003,0.099l0.091-0.008l0,0.008
			c0.309-0.021,0.671-0.04,1.068-0.056c0.519-0.033,1.095-0.049,1.731-0.034c2.141,0,4.386,0.144,6.674,0.424l0.312,0.039
			l0.131,0.285c1.067,2.297,1.565,2.469,2.205,2.469c0.429,0,0.996-0.122,1.712-0.274c0.572-0.124,1.245-0.266,2.044-0.393
			l0.064-0.011l0.062,0.004c0.966,0.065,1.846,0.098,2.614,0.098c3.435,0,4.257-0.647,4.441-1.033
			c0.207-0.431-0.092-1.197-0.842-2.164c-1.13-0.312-2.295-0.635-3.466-1.051l-0.266-0.096l-0.083-0.27
			c-2.457-7.896,3.109-10.49,8.021-12.777C-590.273-1044.615-586.844-1046.211-587.429-1050.15z"/>
		<path fill="#95C11F" d="M-619.597-1027.981c0.511-0.02,1.085-0.034,1.731-0.034
			C-618.502-1028.03-619.078-1028.014-619.597-1027.981z"/>
		<path fill="#F49600" d="M-495.103-1141.834h-27.381c-1.414,0-2.56,1.147-2.56,2.561v116.336c0,1.414,1.146,2.561,2.56,2.561
			h27.381c1.414,0,2.559-1.147,2.559-2.561v-116.336C-492.544-1140.687-493.691-1141.834-495.103-1141.834z M-519.128-1134.758
			c0-1.125,0.383-1.305,1.229-1.331c1.895-0.077,1.92-0.103,3.687-0.077c0.615,0.026,1.127,0.409,1.127,1.408v3.842
			c0,1.407-0.538,1.459-1.204,1.459h-3.611c-0.615,0-1.229-0.052-1.229-1.485V-1134.758L-519.128-1134.758z M-519.128-1127.562
			c0-0.667,0.281-0.769,0.667-0.793c1.279-0.076,2.688-0.052,6.555-0.076c0.435,0,0.536-0.283,0.536-1.256
			c0-0.128-0.051-0.256,0-4.225c0-0.794,0.948-0.794,1.333-0.794h2.814c0.411,0,1.205,0.128,1.205,0.923v3.738
			c0,1.126,0,1.562,1.102,1.562h5.99c0.974,0,0.974,0.614,0.974,0.922v5.044c0,0.41-0.026,0.999-1.025,0.999h-19.538
			c-0.357-0.051-0.615-0.23-0.615-0.999L-519.128-1127.562L-519.128-1127.562z M-519.128-1117.166c0-1.125,0.383-1.305,1.229-1.33
			c1.895-0.078,1.92-0.103,3.687-0.078c0.615,0.026,1.127,0.411,1.127,1.408v3.842c0,1.408-0.538,1.459-1.204,1.459h-3.611
			c-0.615,0-1.229-0.052-1.229-1.485V-1117.166L-519.128-1117.166z M-519.128-1109.97c0-0.666,0.281-0.769,0.667-0.794
			c1.279-0.076,2.688-0.05,6.555-0.076c0.435,0,0.536-0.282,0.536-1.255c0-0.127-0.051-0.256,0-4.225
			c0-0.794,0.948-0.794,1.333-0.794h2.814c0.411,0,1.205,0.128,1.205,0.922v3.739c0,1.125,0,1.561,1.102,1.561h5.99
			c0.974,0,0.974,0.615,0.974,0.922v5.043c0,0.41-0.026,0.999-1.025,0.999h-19.538c-0.357-0.051-0.615-0.23-0.615-0.999
			L-519.128-1109.97L-519.128-1109.97z M-497.951-1099.906v3.893c0,1.434-0.615,1.483-1.23,1.483h-3.61
			c-0.666,0-1.205-0.05-1.205-1.459v-3.841c0-0.999,0.513-1.409,1.127-1.409h3.687
			C-498.335-1101.238-497.951-1101.033-497.951-1099.906z M-519.153-1092.71c0-0.307,0-0.923,0.972-0.923
			c11.933,0,17.746,0,19.564,0.027c0.385,0,0.666,0.128,0.666,0.793v5.146c0,0.77-0.257,0.948-0.615,1h-19.562
			c-1,0-1.025-0.589-1.025-1V-1092.71L-519.153-1092.71z M-508.475-1083.209c5.171,0,10.729,4.353,10.729,9.679
			c0,0.283-0.127,0.947-0.538,0.947h-5.07c-1.56,0-0.844-3.791-5.249-3.791c-4.122,0-3.688,3.766-4.967,3.766h-4.969
			c-0.512,0-0.793-0.409-0.793-0.947C-519.333-1079.881-513.11-1083.209-508.475-1083.209z M-497.926-1033.225
			c-0.025,0.281,0,0.615-0.384,0.896l-19.974,6.991c-0.768,0-0.819-0.437-0.819-1.999v-3.227c0-1.101,0.077-1.561,0.974-1.869
			c4.659-1.664,8.808-3.125,13.519-4.737c0.333-0.154,0.794-0.385,0.794-0.666v-2.689c0-0.383,0.409-0.383,0.665-0.383
			c0.82,0,3.432,1.101,4.251,1.355c0.46,0.206,0.973,0.309,0.973,1.128V-1033.225L-497.926-1033.225z M-497.926-1046.873
			c-0.025,0.282,0,0.616-0.384,0.896l-9.524,3.277c0.689,0.257,1.408,0.487,2.151,0.717c0.486,0.155,1.074,0.436,1.074,0.922v2.56
			c0,0.205-3.405,1.716-5.171,1.716c-0.23,0-0.437-0.025-0.59-0.078c-1.408-0.46-2.969-0.997-5.658-2.072
			c-1.384-0.538-2.998-1.307-3.022-2.1c-0.051-1.307-0.077-1.588-0.077-3.176c0-1.1,0.102-1.562,1-1.869
			c4.659-1.665,8.808-3.125,13.519-4.738c0.333-0.153,0.794-0.383,0.794-0.666v-2.688c0-0.384,0.409-0.384,0.665-0.384
			c0.821,0,3.432,1.101,4.251,1.357c0.461,0.204,0.973,0.307,0.973,1.126L-497.926-1046.873L-497.926-1046.873z M-519.102-1055.194
			v-4.072c0-0.538,0.282-0.794,0.819-0.794c4.789,1.41,9.168,3.329,12.6,4.43c0.486,0.153,1.074,0.436,1.074,0.921v2.561
			c0,0.205-3.405,1.715-5.171,1.715c-0.23,0-0.437-0.026-0.59-0.076c-1.408-0.461-2.969-1-5.658-2.075
			C-518.333-1053.505-519.102-1053.555-519.102-1055.194z M-508.425-1060.829c-4.634,0-10.857-3.329-10.857-9.654
			c0-0.537,0.282-0.947,0.794-0.947h4.968c1.28,0,0.896,3.763,4.966,3.763c4.405,0,3.688-3.763,5.25-3.763h5.07
			c0.41,0,0.538,0.666,0.538,0.947C-497.696-1065.157-503.252-1060.829-508.425-1060.829z"/>
		<g>
			<g>
				<path fill="#F49600" d="M-620.798-1001.456h-3.562c-0.291,0-0.708-0.018-0.708-0.723v-13.79
					c0.037-0.255,0.164-0.435,0.708-0.435h3.563c0.472,0,0.544,0.196,0.562,0.469c0.089,1.613,0.089,3.187,0.089,13.79
					C-620.145-1001.456-620.58-1001.456-620.798-1001.456z M-618.988-1001.438c-0.524,0-0.579-0.179-0.579-0.397v-2.968
					c0-0.436,0.344-1.305,1.229-1.305c1.214,0,1.901-1.103,1.901-2.694c0-1.284-0.742-2.736-1.901-2.736
					c-0.305,0-1.229-0.323-1.229-1.084v-3.147c0-0.474,0.561-0.652,0.942-0.652c4.197,0,7.2,3.564,7.2,7.602
					C-611.424-1004.657-614.897-1001.438-618.988-1001.438z"/>
				<path fill="#F49600" d="M-604.709-1001.456h-3.567c-0.288,0-0.705-0.018-0.705-0.723v-13.808
					c0.036-0.256,0.163-0.435,0.705-0.435h3.656c0.472,0,0.562,0.198,0.562,0.47v13.808
					C-604.059-1001.456-604.492-1001.456-604.709-1001.456z"/>
				<path fill="#F49600" d="M-592.678-1007.155h-2.643c-0.795,0-1.101,0-1.101,0.778v4.234c0,0.688-0.436,0.688-0.653,0.688h-3.563
					c-0.29,0-0.708-0.017-0.708-0.722v-13.808c0.036-0.256,0.163-0.435,0.708-0.435h3.563c0.47,0,0.542,0.198,0.56,0.469
					c0.055,0.907,0.036,1.902,0.055,4.634c0,0.307,0.199,0.38,0.886,0.38c0.093,0,0.182-0.038,2.986,0
					c0.562,0,0.562,0.668,0.562,0.939v1.991C-592.027-1007.717-592.115-1007.155-592.678-1007.155z M-591.991-1012.15h-2.713
					c-0.996,0-1.033-0.38-1.033-0.851v-2.551c0-0.434,0.037-0.868,1.05-0.868h2.696c0.796,0,0.924,0.271,0.942,0.868
					c0.054,1.339,0.073,1.357,0.054,2.605C-591.013-1012.511-591.286-1012.15-591.991-1012.15z M-591.991-1001.456h-2.713
					c-0.996,0-1.033-0.379-1.033-0.851v-2.551c0-0.435,0.037-0.869,1.05-0.869h2.696c0.796,0,0.924,0.272,0.942,0.869
					c0.054,1.339,0.073,1.356,0.054,2.604C-591.013-1001.817-591.286-1001.456-591.991-1001.456z"/>
				<path fill="#F49600" d="M-584.285-1001.456h-3.562c-0.29,0-0.707-0.018-0.707-0.723v-13.79c0.038-0.255,0.164-0.435,0.707-0.435
					h3.654c0.471,0,0.563,0.196,0.563,0.469v13.79C-583.631-1001.456-584.066-1001.456-584.285-1001.456z M-575.47-1001.456h-4.362
					c-0.379,0-0.469-0.179-0.666-0.379c-0.835-1.628-1.577-3.477-2.318-5.155c-0.11-0.274-0.11-1.289-0.11-1.757
					c0-1.014,0.129-1.719,0.653-1.719c0.958,0,1.485-0.615,1.485-1.338c0-0.542-0.489-1.069-1.52-1.069
					c-0.544,0-0.705-0.181-0.705-1.647v-1.104c0-0.471,0.468-0.76,0.939-0.76c4.362,0,6.116,0.977,6.116,4.524
					c0,1.521-0.868,3.167-2.116,3.62c0.018,0.019,0.035,0.417,2.786,6.406C-575.289-1001.654-575.289-1001.546-575.47-1001.456z"/>
				<path fill="#F49600" d="M-564.903-1007.155h-2.643c-0.795,0-1.105,0-1.105,0.778v4.234c0,0.688-0.432,0.688-0.65,0.688h-3.565
					c-0.287,0-0.706-0.017-0.706-0.722v-13.808c0.037-0.256,0.163-0.435,0.706-0.435h3.565c0.473,0,0.543,0.198,0.562,0.469
					c0.053,0.907,0.035,1.902,0.053,4.634c0,0.307,0.2,0.38,0.888,0.38c0.091,0,0.181-0.038,2.983,0
					c0.562,0,0.562,0.668,0.562,0.939v1.991C-564.254-1007.717-564.343-1007.155-564.903-1007.155z M-564.216-1012.15h-2.713
					c-0.998,0-1.034-0.38-1.034-0.851v-2.551c0-0.434,0.036-0.868,1.051-0.868h2.695c0.796,0,0.922,0.271,0.94,0.868
					c0.055,1.339,0.074,1.357,0.055,2.605C-563.24-1012.511-563.512-1012.15-564.216-1012.15z M-564.216-1001.456h-2.713
					c-0.998,0-1.034-0.379-1.034-0.851v-2.551c0-0.435,0.036-0.869,1.051-0.869h2.695c0.796,0,0.922,0.272,0.94,0.869
					c0.055,1.339,0.074,1.356,0.055,2.604C-563.24-1001.817-563.512-1001.456-564.216-1001.456z"/>
				<path fill="#F49600" d="M-548.457-1001.654c0,0.109-0.29,0.199-0.38,0.199h-3.475c-0.468,0-0.704-0.199-0.796-0.289
					c-2.025-3.439-4.287-7.419-6.061-10.333c-0.36-0.579-1.61,0.109-1.61-0.941v-2.659c0-0.471,0.379-0.743,0.85-0.743l3.023,0.019
					c0.541,0,0.796,0.323,0.958,0.469c1.918,3.476,3.91,6.841,5.971,10.207c0.4,0.507,1.611,0,1.611,0.651v3.041
					C-548.366-1001.925-548.457-1001.654-548.457-1001.654z M-557.307-1001.456h-2.769c-0.271,0-0.67-0.018-0.67-0.433v-9.231
					c0-0.307,0.127-0.632,0.272-0.632c0.182,0,0.434-0.017,0.725-0.017c0.578,0.686,2.386,3.979,2.985,5.102
					c0.074,0.958,0.074,1.354,0.074,4.796C-556.69-1001.527-557.106-1001.456-557.307-1001.456z M-548.621-1006.107
					c-0.18,0-0.433,0.019-0.725,0.019c-0.578-0.688-2.388-3.98-2.983-5.101c-0.074-0.96-0.074-1.359-0.074-4.796
					c0-0.344,0.417-0.416,0.616-0.416h2.768c0.271,0,0.67,0.017,0.67,0.434v9.228
					C-548.349-1006.431-548.474-1006.107-548.621-1006.107z"/>
				<path fill="#F49600" d="M-538.832-1003.646h-3.348c-0.615,1.648-0.615,2.19-1.773,2.19h-2.117c-0.382,0-0.56-0.2-0.56-0.579
					c1.084-3.382,2.007-6.299,2.841-8.724c0.109-0.343,0.311-0.76,0.651-0.76h1.465c0.707,0,1.159,1.919,1.159,2.243l-0.416,1.647
					c0,0.673,1.085,0.092,1.248,0.581l1.032,3.023C-538.65-1003.861-538.724-1003.699-538.832-1003.646z M-533.621-1001.456h-2.278
					c-0.777,0-1.104-0.055-1.323-0.688c-1.176-3.292-2.207-6.226-3.346-9.554c-0.109-0.234-0.272-0.562-0.47-0.562h-1.902
					c-0.272,0-0.272-0.291-0.272-0.469c0-0.22,0.779-2.428,0.96-3.006c0.145-0.326,0.29-0.688,0.796-0.688h3.672
					c0.2,0.019,0.435,0,0.633,0.271l4.94,14.115C-532.209-1001.491-532.516-1001.456-533.621-1001.456z"/>
				<path fill="#F49600" d="M-526.22-1001.456h-3.565c-0.29,0-0.705-0.018-0.705-0.723v-13.79c0.037-0.255,0.163-0.435,0.705-0.435
					h3.656c0.471,0,0.561,0.196,0.561,0.469v13.79C-525.569-1001.456-526.005-1001.456-526.22-1001.456z M-517.406-1001.456h-4.362
					c-0.382,0-0.472-0.179-0.668-0.379c-0.834-1.628-1.577-3.477-2.321-5.155c-0.107-0.274-0.107-1.289-0.107-1.757
					c0-1.014,0.126-1.719,0.652-1.719c0.958,0,1.482-0.615,1.482-1.338c0-0.542-0.489-1.069-1.52-1.069
					c-0.543,0-0.706-0.181-0.706-1.647v-1.104c0-0.471,0.471-0.76,0.941-0.76c4.359,0,6.117,0.977,6.117,4.524
					c0,1.521-0.87,3.167-2.117,3.62c0.017,0.019,0.035,0.417,2.787,6.406C-517.226-1001.654-517.226-1001.546-517.406-1001.456z"/>
				<path fill="#F49600" d="M-505.521-1012.15h-9.772c-0.994,0-1.03-0.38-1.03-0.851v-2.551c0-0.434,0.037-0.868,1.047-0.868h9.81
					c0.795,0,0.94,0.271,0.94,0.868v2.605C-504.526-1012.511-504.815-1012.15-505.521-1012.15z M-508.616-1001.456h-3.566
					c-0.288,0-0.705-0.018-0.705-0.723v-8.958c0.038-0.254,0.164-0.436,0.705-0.436h3.566c0.473,0,0.544,0.201,0.562,0.472
					c0.091,1.611,0.091,2.878,0.091,8.957C-507.963-1001.456-508.399-1001.456-508.616-1001.456z"/>
				<path fill="#F49600" d="M-494.754-1012.567c-0.09,0.199-0.183,0.199-0.364,0.199c-0.668,0-1.245-0.579-1.988-0.579
					c-0.29,0-0.96,0.29-0.96,0.67c0,0.635,1.069,0.887,1.069,1.267v0.055c-0.688,1.356-1.755,3.8-2.082,3.8
					c-0.38,0-0.614-0.182-0.869-0.29c-1.989-0.851-3.041-2.281-3.041-4.452c0-2.841,2.661-4.923,5.303-4.923
					c1.323,0,2.75,0.399,3.802,1.123c0.179,0.126,0.269,0.289,0.269,0.488C-493.831-1014.23-494.321-1013.471-494.754-1012.567z
					 M-498.067-1001.001c-1.666,0-3.692-0.218-4.833-1.61l-0.09-0.291c0.036-0.398,0.852-2.931,1.611-2.931h0.29l0.85,0.469
					c0.564,0.308,1.032,0.469,1.702,0.469c0.561,0,1.43-0.088,1.43-0.849c0-0.761-0.743-0.889-1.159-1.159
					c0.471-0.977,1.268-2.515,1.629-3.383c0.181-0.2,0.273-0.29,0.562-0.29c0.47,0,0.849,0.2,1.32,0.47
					c1.338,0.761,2.188,2.369,2.188,3.893C-492.566-1003.155-495.173-1001.001-498.067-1001.001z"/>
			</g>
		</g>
		<g>
			<g>
				<path fill="#95C11F" d="M-480.841-1009.685c0.093-0.103,0.237-0.266,0.432-0.502c0.196-0.233,0.403-0.636,0.617-1.21
					c0.222-0.574,0.428-1.381,0.626-2.425c0.199-1.043,0.35-2.446,0.449-4.199c0.049-0.935,0.126-2.127,0.221-3.574
					c0.103-1.449,0.216-2.997,0.344-4.643c0.132-1.652,0.262-3.354,0.392-5.097c0.125-1.747,0.255-3.411,0.386-4.993
					c0.127-1.575,0.244-3.004,0.341-4.288c0.101-1.28,0.182-2.278,0.25-2.988c-0.453,0.419-0.889,0.875-1.302,1.372
					c-0.366,0.437-0.757,0.921-1.159,1.456c-0.406,0.536-0.794,1.091-1.165,1.663c-0.41-0.229-0.745-0.505-0.997-0.823
					c-0.137-0.143-0.263-0.303-0.381-0.474c-0.236-0.38-0.399-0.784-0.477-1.218c-0.078-0.437,0.177-0.945,0.771-1.527
					c0.304-0.313,0.78-0.763,1.41-1.356c0.634-0.591,1.439-1.21,2.417-1.854c0.97-0.641,2.136-1.251,3.483-1.836
					c1.349-0.585,2.88-1.031,4.586-1.346c1.709-0.316,3.147-0.228,4.317,0.253c1.164,0.487,2.118,1.167,2.855,2.041
					c0.732,0.873,1.281,1.844,1.644,2.892c0.362,1.056,0.575,1.993,0.644,2.824c0.118,1.549-0.077,3.229-0.584,5.023
					c-0.511,1.808-1.357,3.538-2.537,5.2c-1.183,1.662-2.708,3.17-4.59,4.525c-1.882,1.353-4.139,2.347-6.77,2.965
					c-0.03,1.073-0.048,2.166-0.065,3.293c-0.018,1.125-0.051,2.229-0.104,3.319c-0.053,1.089-0.123,2.11-0.217,3.069
					c-0.092,0.957-0.21,1.786-0.361,2.481c-0.142,0.754-0.394,1.381-0.747,1.881c-0.362,0.501-1.013,0.837-1.958,1.015
					c-0.49,0.089-0.963,0.051-1.432-0.117C-479.964-1009.049-480.41-1009.316-480.841-1009.685z M-474.618-1030.004
					c0,0.451,0.006,1.032,0.008,1.747c0.004,0.712,0.005,1.52,0.005,2.417c0.708-0.244,1.487-0.589,2.327-1.04
					c0.843-0.45,1.672-0.996,2.472-1.655c0.807-0.651,1.573-1.402,2.297-2.247c0.732-0.851,1.36-1.795,1.897-2.833
					c0.539-1.038,0.94-2.177,1.205-3.414c0.259-1.236,0.329-2.579,0.207-4.011c-0.115-1.38-0.4-2.501-0.851-3.359
					c-0.448-0.853-0.997-1.508-1.643-1.965c-0.648-0.456-1.342-0.729-2.086-0.837c-0.749-0.096-1.474-0.084-2.183,0.046
					c-0.672,0.125-1.319,0.342-1.938,0.649c-0.613,0.312-1.218,0.672-1.814,1.09c0.082,0.015,0.188,0.065,0.32,0.151
					c0.192,0.132,0.358,0.344,0.495,0.624c-0.17,2.749-0.302,5.042-0.397,6.883c-0.095,1.842-0.166,3.337-0.201,4.493
					C-474.561-1031.902-474.597-1030.818-474.618-1030.004z"/>
				<path fill="#95C11F" d="M-439.958-1031.963c-0.595,1.343-1.306,2.672-2.127,3.984c-0.823,1.315-1.728,2.519-2.718,3.614
					c-0.99,1.089-2.041,2.018-3.143,2.78c-1.109,0.769-2.231,1.251-3.371,1.463c-0.593,0.108-1.267,0.084-2.011-0.071
					c-0.743-0.156-1.454-0.483-2.136-0.972c-0.677-0.49-1.271-1.183-1.782-2.068c-0.513-0.886-0.827-2.019-0.945-3.404
					c-0.095-1.127,0.034-2.367,0.392-3.707c0.354-1.34,0.865-2.604,1.532-3.795c0.661-1.183,1.468-2.211,2.415-3.087
					c0.945-0.874,1.962-1.41,3.046-1.614c1.03-0.186,1.822-0.065,2.379,0.363c0.553,0.429,0.875,1.032,0.96,1.798
					c0.076,0.858-0.02,1.671-0.287,2.45c-0.26,0.777-0.614,1.497-1.051,2.17c-0.437,0.667-0.917,1.289-1.444,1.86
					c-0.525,0.571-1.025,1.101-1.495,1.578c-0.524,0.518-1.022,1.011-1.494,1.478c-0.479,0.465-0.891,0.88-1.243,1.252
					c0.15,0.673,0.376,1.223,0.685,1.646c0.296,0.418,0.639,0.739,1.018,0.965c0.374,0.226,0.784,0.357,1.225,0.403
					c0.442,0.043,0.883,0.031,1.315-0.049c0.923-0.172,1.833-0.642,2.729-1.408c0.894-0.766,1.748-1.653,2.56-2.655
					c0.809-1.003,1.543-2.031,2.208-3.076c0.662-1.049,1.206-1.949,1.629-2.696c0.148-0.249,0.32-0.418,0.514-0.497
					c0.199-0.074,0.367-0.078,0.506-0.004c0.14,0.071,0.229,0.22,0.272,0.452C-439.776-1032.578-439.819-1032.298-439.958-1031.963z
					 M-451.521-1036.308c-0.327,0.056-0.681,0.291-1.07,0.697c-0.387,0.411-0.741,0.959-1.063,1.647
					c-0.318,0.692-0.589,1.509-0.808,2.461c-0.215,0.95-0.315,2.016-0.298,3.187c0.286-0.304,0.586-0.62,0.924-0.948
					c0.331-0.326,0.663-0.674,0.983-1.041c1.002-1.106,1.667-2.044,2.006-2.811c0.335-0.761,0.486-1.394,0.451-1.888
					c-0.039-0.525-0.163-0.886-0.37-1.091C-450.968-1036.29-451.224-1036.364-451.521-1036.308z"/>
				<path fill="#95C11F" d="M-442.911-1022.887c-0.134,0.333-0.308,0.566-0.523,0.708c-0.211,0.135-0.413,0.187-0.601,0.154
					c-0.191-0.041-0.332-0.161-0.421-0.367c-0.096-0.206-0.09-0.486,0.01-0.844c0.053-0.177,0.166-0.574,0.348-1.199
					c0.179-0.622,0.39-1.368,0.636-2.241c0.247-0.869,0.515-1.814,0.802-2.831c0.292-1.024,0.569-1.994,0.832-2.907
					c0.271-0.925,0.516-1.747,0.747-2.474c0.226-0.732,0.399-1.258,0.507-1.588c-0.349-0.215-0.59-0.372-0.721-0.471
					c-0.13-0.107-0.259-0.354-0.389-0.754c-0.117-0.341-0.12-0.82-0.011-1.427c0.113-0.607,0.298-1.21,0.554-1.804
					c0.252-0.596,0.567-1.116,0.932-1.576c0.359-0.466,0.747-0.73,1.151-0.81c0.761-0.137,1.34,0.01,1.742,0.439
					c0.398,0.433,0.674,0.898,0.829,1.408c0.117,0.343,0.173,0.792,0.163,1.354c-0.008,0.564-0.122,1.087-0.34,1.574
					c0.094,0.042,0.21,0.086,0.356,0.122c0.15,0.047,0.375,0.042,0.671-0.014c0.437-0.079,0.734-0.163,0.901-0.251
					c0.167-0.087,0.437-0.162,0.819-0.234c0.461-0.083,0.862-0.036,1.203,0.136c0.34,0.175,0.638,0.421,0.89,0.722
					c0.252,0.301,0.461,0.642,0.623,1.019c0.169,0.372,0.299,0.722,0.382,1.038c0.207,0.668,0.161,1.403-0.135,2.215
					c-0.3,0.809-0.681,1.71-1.15,2.695c-0.274,0.609-0.543,1.288-0.796,2.036c-0.26,0.749-0.307,1.389-0.153,1.919
					c0.12,0.345,0.267,0.607,0.44,0.804c0.176,0.194,0.571,0.228,1.196,0.114c0.462-0.083,0.944-0.348,1.432-0.787
					c0.496-0.438,0.988-0.978,1.473-1.616c0.483-0.637,0.951-1.325,1.406-2.065c0.451-0.743,0.867-1.462,1.241-2.162
					c0.372-0.701,0.687-1.328,0.937-1.878c0.251-0.55,0.436-0.947,0.557-1.192c0.097-0.241,0.246-0.424,0.448-0.545
					c0.202-0.122,0.392-0.156,0.573-0.106c0.172,0.051,0.304,0.196,0.389,0.431c0.085,0.242,0.046,0.583-0.122,1.034
					c-0.114,0.299-0.312,0.784-0.598,1.45c-0.283,0.672-0.635,1.424-1.054,2.256c-0.42,0.833-0.9,1.701-1.438,2.599
					c-0.531,0.898-1.115,1.734-1.743,2.508c-0.629,0.774-1.278,1.432-1.947,1.974c-0.674,0.546-1.348,0.881-2.026,1.005
					c-0.706,0.128-1.313,0.102-1.823-0.089c-0.508-0.184-0.945-0.445-1.299-0.788c-0.358-0.34-0.643-0.737-0.852-1.188
					c-0.208-0.454-0.339-0.886-0.386-1.292c-0.03-0.331-0.006-0.698,0.074-1.087c0.08-0.39,0.188-0.807,0.318-1.234
					c0.134-0.435,0.276-0.865,0.437-1.301c0.157-0.436,0.295-0.864,0.415-1.273c0.315-0.874,0.566-1.615,0.749-2.224
					c0.183-0.605,0.24-1.102,0.167-1.481c-0.043-0.244-0.139-0.447-0.281-0.62c-0.14-0.167-0.336-0.231-0.577-0.188
					c-0.165,0.029-0.279,0.059-0.344,0.083c-0.067,0.028-0.134,0.047-0.199,0.06c-0.066,0.01-0.16,0.036-0.282,0.072
					c-0.123,0.035-0.299,0.074-0.543,0.12c-0.353,0.066-0.66,0.065-0.927,0.002c-0.265-0.062-0.508-0.099-0.737-0.117
					c-0.073,0.21-0.239,0.662-0.508,1.357c-0.264,0.693-0.572,1.507-0.917,2.442c-0.344,0.929-0.713,1.903-1.099,2.933
					c-0.388,1.022-0.75,1.979-1.09,2.868c-0.344,0.893-0.629,1.644-0.872,2.262C-442.7-1023.38-442.85-1023.01-442.911-1022.887z"/>
				<path fill="#95C11F" d="M-418.931-1028.516c0.182,0.082,0.401,0.095,0.657,0.048c0.259-0.046,0.506-0.148,0.744-0.302
					c0.237-0.159,0.456-0.354,0.65-0.588c0.197-0.228,0.32-0.506,0.374-0.819c0.054-0.323-0.026-0.751-0.238-1.285
					c-0.21-0.535-0.485-1.099-0.835-1.696c-0.344-0.595-0.716-1.191-1.106-1.793c-0.393-0.602-0.732-1.154-1.024-1.663
					c-0.231-0.373-0.439-0.729-0.615-1.063c-0.16-0.275-0.32-0.547-0.463-0.818c-0.146-0.268-0.259-0.45-0.331-0.549
					c-0.095,0.242-0.271,0.638-0.52,1.186c-0.25,0.555-0.521,1.128-0.814,1.728c-0.297,0.6-0.581,1.159-0.854,1.67
					c-0.267,0.513-0.458,0.863-0.562,1.05c-0.175,0.284-0.354,0.466-0.549,0.543c-0.199,0.079-0.372,0.069-0.534-0.026
					c-0.155-0.096-0.267-0.26-0.319-0.492c-0.059-0.227-0.009-0.517,0.154-0.889c0.12-0.244,0.297-0.638,0.541-1.168
					c0.237-0.538,0.47-1.086,0.701-1.645c0.237-0.558,0.448-1.066,0.649-1.503c0.201-0.445,0.302-0.711,0.32-0.798
					c0.013-0.225-0.117-0.499-0.381-0.815c-0.267-0.312-0.379-0.711-0.327-1.197c0.039-0.401,0.196-0.89,0.49-1.458
					c0.289-0.576,0.651-1.109,1.091-1.61c0.44-0.505,0.914-0.903,1.417-1.206c0.507-0.304,0.993-0.385,1.467-0.248
					c0.392,0.153,0.725,0.336,0.983,0.556c0.264,0.214,0.396,0.464,0.393,0.75c-0.031,0.144-0.08,0.334-0.146,0.573
					c-0.071,0.234-0.183,0.525-0.342,0.876c-0.162,0.354-0.397,0.812-0.718,1.375c0.196,0.605,0.419,1.157,0.662,1.644
					c0.243,0.487,0.47,0.908,0.675,1.264c0.249,0.431,0.5,0.816,0.757,1.165c0.338,0.442,0.687,0.899,1.05,1.363
					c0.364,0.461,0.705,0.931,1.013,1.392c0.312,0.455,0.571,0.895,0.788,1.304c0.215,0.405,0.325,0.764,0.324,1.07
					c0.005,0.479-0.13,1.083-0.406,1.804c-0.273,0.726-0.643,1.441-1.119,2.158c-0.47,0.714-1.037,1.362-1.7,1.931
					c-0.668,0.572-1.408,0.932-2.218,1.082c-0.572,0.106-1.155,0.029-1.748-0.228c-0.592-0.251-1.116-0.583-1.566-0.995
					c-0.456-0.402-0.812-0.821-1.073-1.25c-0.265-0.423-0.346-0.776-0.255-1.043c0.1-0.356,0.205-0.642,0.305-0.854
					c0.1-0.214,0.261-0.472,0.486-0.764c0.096-0.105,0.212-0.224,0.354-0.362c0.125-0.106,0.301-0.222,0.525-0.347
					c0.232-0.13,0.5-0.275,0.805-0.441c0.424,0.79,0.788,1.405,1.095,1.836c0.308,0.434,0.548,0.776,0.733,1.024
					C-419.277-1028.773-419.088-1028.598-418.931-1028.516z"/>
				<path fill="#95C11F" d="M-398.926-1037.452c-0.081,1.079-0.271,2.108-0.566,3.086c-0.298,0.987-0.706,1.857-1.225,2.626
					c-0.516,0.768-1.141,1.407-1.867,1.919c-0.74,0.517-1.576,0.857-2.524,1.034c-1.115,0.202-2.032,0.122-2.755-0.23
					c-0.726-0.357-1.31-0.861-1.748-1.504c-0.445-0.653-0.775-1.391-1-2.218c-0.22-0.829-0.397-1.607-0.533-2.341
					c-0.097-0.509-0.142-1.093-0.132-1.74c0.011-0.646,0.061-1.313,0.156-2.003c0.1-0.697,0.251-1.395,0.477-2.109
					c0.218-0.713,0.503-1.382,0.867-2.008c0.078-0.489,0.257-0.943,0.53-1.356c0.276-0.415,0.61-0.784,1.016-1.095
					c0.405-0.313,0.859-0.578,1.349-0.794c0.493-0.218,0.981-0.37,1.469-0.46c0.084-0.011,0.159-0.015,0.231,0.003
					c0.075,0.013,0.155,0.029,0.244,0.037c0.353-0.035,0.817,0.018,1.395,0.169c0.57,0.144,1.153,0.417,1.743,0.81
					c0.591,0.394,1.135,0.933,1.625,1.613c0.487,0.683,0.829,1.549,1.024,2.61c0.04,0.215,0.074,0.48,0.104,0.796
					c0.029,0.319,0.052,0.588,0.064,0.808c0.58-0.354,1.178-0.776,1.788-1.251c0.612-0.478,1.205-0.974,1.767-1.482
					c0.563-0.511,1.08-1.021,1.548-1.526c0.466-0.508,0.833-0.955,1.099-1.339c0.229-0.292,0.432-0.468,0.617-0.532
					c0.187-0.062,0.331-0.031,0.436,0.089c0.106,0.119,0.156,0.308,0.147,0.559c-0.008,0.255-0.108,0.553-0.298,0.895
					c-0.105,0.188-0.392,0.582-0.858,1.165c-0.464,0.594-1.026,1.248-1.68,1.953c-0.654,0.71-1.376,1.416-2.169,2.124
					C-397.384-1038.435-398.165-1037.874-398.926-1037.452z M-408.223-1034.732c0.091,0.488,0.203,0.967,0.348,1.428
					c0.142,0.465,0.327,0.866,0.559,1.204c0.229,0.333,0.499,0.593,0.814,0.771c0.311,0.181,0.688,0.233,1.121,0.153
					c0.489-0.09,0.914-0.291,1.278-0.598c0.368-0.301,0.675-0.67,0.934-1.095c0.26-0.425,0.471-0.895,0.641-1.418
					c0.172-0.525,0.304-1.062,0.399-1.61c-0.183,0.065-0.362,0.121-0.537,0.165c-0.176,0.048-0.371,0.088-0.586,0.128
					c-1.031,0.189-1.973,0.045-2.832-0.427c-0.858-0.473-1.577-1.146-2.161-2.02c-0.056,0.601-0.089,1.181-0.097,1.743
					C-408.355-1035.747-408.313-1035.223-408.223-1034.732z M-406.938-1042.367c-0.037,0.253-0.023,0.519,0.022,0.791
					c0.081,0.436,0.191,0.887,0.333,1.351c0.144,0.465,0.355,0.868,0.643,1.207c0.287,0.339,0.689,0.591,1.209,0.764
					c0.525,0.172,1.207,0.181,2.048,0.025c0.133-0.024,0.266-0.053,0.401-0.098c0.134-0.036,0.264-0.083,0.394-0.132
					c0.016-0.367,0.033-0.702,0.048-1.002c0.019-0.296,0.004-0.552-0.036-0.767c-0.038-0.526-0.139-1.057-0.291-1.589
					c-0.152-0.532-0.347-1.007-0.578-1.424c-0.233-0.42-0.487-0.751-0.771-0.994c-0.284-0.246-0.589-0.334-0.916-0.276
					c-0.512,0.094-0.983,0.328-1.403,0.703C-406.258-1043.436-406.622-1042.958-406.938-1042.367z"/>
				<path fill="#95C11F" d="M-382.54-1040.465c-0.079,1.079-0.269,2.112-0.562,3.089c-0.301,0.981-0.708,1.854-1.226,2.62
					c-0.516,0.77-1.142,1.41-1.873,1.925c-0.733,0.513-1.575,0.852-2.521,1.031c-1.116,0.206-2.029,0.125-2.751-0.228
					c-0.728-0.361-1.315-0.865-1.752-1.512c-0.444-0.647-0.771-1.384-0.997-2.218c-0.222-0.824-0.398-1.605-0.534-2.333
					c-0.096-0.514-0.141-1.1-0.134-1.742c0.009-0.647,0.062-1.312,0.161-2.005c0.092-0.691,0.252-1.394,0.471-2.105
					c0.223-0.713,0.512-1.383,0.873-2.012c0.078-0.489,0.256-0.94,0.529-1.358c0.274-0.414,0.612-0.776,1.019-1.094
					c0.403-0.305,0.853-0.577,1.345-0.791c0.494-0.217,0.983-0.368,1.474-0.456c0.081-0.018,0.157-0.014,0.229-0.005
					c0.069,0.016,0.149,0.028,0.238,0.041c0.36-0.037,0.824,0.02,1.398,0.167c0.573,0.144,1.16,0.417,1.745,0.813
					c0.59,0.391,1.136,0.933,1.625,1.613c0.49,0.679,0.827,1.546,1.025,2.609c0.037,0.215,0.071,0.482,0.101,0.799
					c0.034,0.314,0.055,0.585,0.067,0.808c0.581-0.358,1.177-0.774,1.787-1.252c0.615-0.481,1.205-0.974,1.768-1.485
					c0.563-0.505,1.08-1.02,1.549-1.522c0.464-0.512,0.836-0.953,1.099-1.338c0.226-0.292,0.436-0.472,0.616-0.535
					c0.185-0.061,0.331-0.032,0.438,0.09c0.104,0.121,0.154,0.305,0.147,0.561c-0.009,0.255-0.114,0.548-0.3,0.896
					c-0.106,0.187-0.395,0.577-0.857,1.165c-0.463,0.593-1.027,1.243-1.683,1.952c-0.653,0.707-1.375,1.415-2.175,2.124
					C-380.995-1041.449-381.776-1040.889-382.54-1040.465z M-391.834-1037.746c0.09,0.489,0.203,0.965,0.343,1.429
					c0.143,0.461,0.33,0.865,0.56,1.199c0.229,0.339,0.496,0.596,0.816,0.777c0.309,0.18,0.688,0.231,1.121,0.15
					c0.487-0.087,0.913-0.286,1.278-0.592c0.362-0.308,0.678-0.674,0.932-1.094c0.258-0.432,0.468-0.902,0.646-1.423
					c0.166-0.521,0.298-1.058,0.396-1.612c-0.187,0.064-0.366,0.121-0.536,0.169c-0.176,0.043-0.373,0.084-0.592,0.129
					c-1.026,0.188-1.973,0.044-2.829-0.428c-0.857-0.471-1.577-1.147-2.159-2.021c-0.056,0.598-0.092,1.181-0.101,1.743
					C-391.965-1038.762-391.925-1038.235-391.834-1037.746z M-390.548-1045.383c-0.036,0.26-0.031,0.525,0.019,0.794
					c0.08,0.435,0.192,0.884,0.333,1.349c0.139,0.46,0.354,0.867,0.641,1.207c0.289,0.337,0.693,0.592,1.212,0.766
					c0.522,0.17,1.203,0.179,2.044,0.022c0.137-0.025,0.271-0.06,0.399-0.1c0.138-0.037,0.267-0.079,0.399-0.133
					c0.018-0.366,0.031-0.703,0.048-1c0.013-0.292,0.001-0.554-0.037-0.765c-0.043-0.525-0.139-1.056-0.294-1.589
					c-0.153-0.531-0.34-1.006-0.576-1.428c-0.23-0.417-0.489-0.751-0.77-0.991c-0.281-0.245-0.591-0.338-0.916-0.277
					c-0.514,0.1-0.984,0.328-1.408,0.707C-389.868-1046.453-390.24-1045.97-390.548-1045.383z"/>
				<path fill="#95C11F" d="M-364.734-1036.008c-0.628,0.118-1.179,0.1-1.669-0.047c-0.492-0.149-0.906-0.387-1.251-0.714
					c-0.335-0.333-0.591-0.738-0.768-1.23c-0.172-0.482-0.244-1.024-0.212-1.615c0.011-0.394,0.053-0.931,0.122-1.601
					c0.075-0.672,0.146-1.4,0.209-2.185c0.066-0.784,0.122-1.559,0.162-2.339c0.034-0.778,0.026-1.475-0.029-2.094
					c-0.06-0.628-0.182-1.12-0.358-1.493c-0.187-0.371-0.45-0.527-0.805-0.462c-0.434,0.079-0.852,0.306-1.263,0.676
					c-0.404,0.37-0.805,0.838-1.188,1.413c-0.385,0.579-0.755,1.229-1.114,1.953c-0.356,0.72-0.699,1.467-1.039,2.229
					c-0.072,0.967-0.125,1.812-0.16,2.537c-0.04,0.716-0.065,1.366-0.088,1.944c-0.019,0.575-0.049,1.086-0.077,1.528
					c-0.03,0.439-0.049,0.857-0.062,1.251c-0.029,0.287-0.229,0.598-0.588,0.926c-0.363,0.334-0.752,0.627-1.184,0.871
					c-0.434,0.249-0.816,0.404-1.156,0.468c-0.34,0.062-0.503-0.036-0.493-0.289c-0.003-0.168,0.018-0.549,0.065-1.146
					c0.039-0.596,0.091-1.3,0.153-2.111c0.065-0.807,0.121-1.666,0.18-2.578c0.056-0.908,0.106-1.77,0.153-2.591
					c0.021-0.646,0.045-1.363,0.062-2.156c0.016-0.673,0.049-1.46,0.09-2.373c0.045-0.905,0.109-1.891,0.192-2.974
					c0.155-0.198,0.332-0.366,0.518-0.498c0.184-0.132,0.375-0.244,0.588-0.336c0.201-0.127,0.421-0.216,0.663-0.287
					c0.218-0.045,0.437-0.072,0.658-0.081c0.198-0.01,0.396-0.001,0.613,0.031c0.218,0.027,0.42,0.099,0.604,0.202
					c-0.044,0.206-0.09,0.487-0.139,0.843c-0.045,0.365-0.085,0.739-0.127,1.141c-0.026,0.453-0.081,0.928-0.156,1.418
					c0.261-0.552,0.57-1.123,0.924-1.706c0.356-0.582,0.76-1.128,1.215-1.63c0.452-0.501,0.953-0.942,1.499-1.309
					c0.553-0.368,1.138-0.604,1.764-0.717c0.512-0.101,1-0.035,1.465,0.188c0.458,0.225,0.854,0.579,1.186,1.061
					c0.322,0.488,0.577,1.098,0.753,1.819c0.172,0.727,0.217,1.542,0.132,2.458l-0.116,1.872c-0.032,0.592-0.081,1.292-0.14,2.104
					c-0.06,0.811-0.152,1.703-0.284,2.678c-0.051,0.63-0.021,1.157,0.099,1.58c0.122,0.428,0.427,0.596,0.914,0.506
					c0.487-0.09,1.048-0.503,1.687-1.237c0.636-0.729,1.255-1.587,1.859-2.571c0.605-0.978,1.167-1.97,1.68-2.979
					c0.517-1.004,0.901-1.808,1.155-2.416c0.176-0.395,0.365-0.668,0.562-0.82c0.197-0.145,0.366-0.19,0.502-0.132
					c0.14,0.058,0.229,0.229,0.284,0.511c0.049,0.289,0.011,0.672-0.128,1.143c-0.121,0.413-0.32,0.972-0.598,1.664
					c-0.279,0.697-0.625,1.447-1.041,2.25c-0.411,0.807-0.86,1.624-1.354,2.457c-0.49,0.835-1.022,1.604-1.593,2.312
					c-0.57,0.708-1.147,1.307-1.746,1.796C-363.542-1036.417-364.133-1036.115-364.734-1036.008z"/>
				<path fill="#95C11F" d="M-358.497-1038.877c0.271-5.232,0.489-9.432,0.65-12.604c0.158-3.165,0.278-5.586,0.369-7.256
					c0.08-1.979,0.135-3.344,0.165-4.104c-0.009-0.537-0.037-1.049-0.073-1.549c-0.028-0.442-0.081-0.896-0.164-1.356
					c-0.085-0.463-0.203-0.873-0.354-1.239c0.192-0.174,0.408-0.321,0.646-0.453c0.247-0.13,0.485-0.243,0.719-0.34
					c0.283-0.139,0.569-0.263,0.858-0.368c0.288-0.113,0.554-0.188,0.797-0.229c0.217-0.042,0.423-0.056,0.622-0.053
					s0.335,0.07,0.416,0.193c0.188,0.108,0.312,0.366,0.373,0.774c0.062,0.406,0.102,0.833,0.126,1.277
					c-0.013,0.535-0.031,1.117-0.057,1.734c-0.11,1.23-0.249,2.989-0.412,5.293c-0.147,1.954-0.335,4.628-0.568,8.006
					c-0.233,3.377-0.524,7.639-0.867,12.772c-0.11,0.162-0.256,0.285-0.436,0.375c-0.177,0.087-0.352,0.146-0.516,0.178
					c-0.19,0.036-0.392,0.058-0.614,0.073c-0.202-0.021-0.401-0.07-0.614-0.145c-0.182-0.075-0.369-0.189-0.571-0.333
					C-358.193-1038.379-358.358-1038.594-358.497-1038.877z"/>
				<path fill="#95C11F" d="M-348.135-1055.913c0.105-0.189,0.34-0.373,0.699-0.553c0.363-0.181,0.736-0.34,1.131-0.482
					c0.394-0.143,0.757-0.25,1.096-0.326c0.335-0.075,0.534-0.102,0.593-0.086c0.035,0.021,0.017,0.314-0.048,0.89
					c-0.057,0.571-0.148,1.246-0.257,2.022c-0.108,0.777-0.229,1.576-0.357,2.402c-0.124,0.817-0.214,1.486-0.261,1.998
					c-0.047,0.518-0.108,1.093-0.184,1.735c-0.081,0.649-0.139,1.275-0.179,1.887c-0.041,0.607-0.049,1.175-0.004,1.7
					c0.041,0.529,0.152,0.914,0.34,1.16c0.193,0.298,0.384,0.493,0.57,0.587c0.186,0.093,0.375,0.122,0.563,0.084
					c0.543-0.097,1.174-0.523,1.886-1.27c0.719-0.747,1.431-1.616,2.132-2.6c0.701-0.984,1.342-1.971,1.915-2.96
					c0.573-0.988,0.992-1.77,1.247-2.349c0.166-0.312,0.36-0.53,0.572-0.655c0.215-0.125,0.408-0.143,0.577-0.064
					c0.168,0.084,0.281,0.245,0.343,0.482c0.058,0.244,0.022,0.546-0.11,0.907c-0.29,0.836-0.765,1.858-1.413,3.055
					c-0.646,1.197-1.354,2.366-2.129,3.501c-0.774,1.137-1.547,2.126-2.33,2.973c-0.789,0.845-1.462,1.333-2.024,1.465
					c-0.46,0.111-0.923,0.119-1.402,0.029c-0.479-0.097-0.935-0.265-1.357-0.513c-0.424-0.237-0.795-0.551-1.117-0.926
					c-0.319-0.375-0.537-0.791-0.65-1.243c-0.206-0.667-0.375-1.596-0.51-2.788c-0.134-1.192-0.212-2.431-0.221-3.705
					c-0.01-1.271,0.053-2.499,0.189-3.668C-348.701-1054.397-348.467-1055.293-348.135-1055.913z M-344.115-1065.612
					c-0.026,0.316-0.127,0.634-0.304,0.958c-0.181,0.329-0.392,0.607-0.647,0.837c-0.254,0.229-0.521,0.396-0.812,0.505
					c-0.288,0.105-0.539,0.098-0.759-0.026c-0.651-0.332-1.035-0.743-1.15-1.237c-0.123-0.499-0.091-0.995,0.101-1.492
					c0.19-0.501,0.455-0.94,0.808-1.327c0.348-0.385,0.666-0.632,0.956-0.743c0.287-0.109,0.55-0.096,0.784,0.046
					c0.24,0.139,0.432,0.338,0.593,0.605c0.164,0.263,0.283,0.569,0.361,0.917C-344.105-1066.217-344.085-1065.897-344.115-1065.612
					z"/>
				<path fill="#95C11F" d="M-338.391-1022.816c-0.731,0.137-1.404,0.049-2.017-0.257c-0.621-0.309-1.155-0.745-1.609-1.304
					s-0.829-1.192-1.125-1.892c-0.298-0.706-0.493-1.384-0.585-2.039c-0.08-0.574-0.001-1.347,0.222-2.312
					c0.232-0.97,0.604-2.021,1.122-3.169c0.52-1.15,1.185-2.334,1.995-3.562c0.814-1.231,1.753-2.363,2.821-3.4
					c0.011-0.872,0.023-1.761,0.033-2.674c0.014-0.915,0.027-1.802,0.042-2.654c0.007-0.86,0.033-1.676,0.072-2.454
					c0.039-0.776,0.086-1.466,0.144-2.07c0.058-0.763,0.116-1.568,0.185-2.429c0.057-0.734,0.134-1.558,0.222-2.454
					c0.082-0.9,0.181-1.809,0.297-2.728c0.246-0.183,0.487-0.327,0.726-0.426c0.228-0.101,0.438-0.181,0.623-0.242
					c0.211-0.071,0.416-0.105,0.612-0.113c0.194-0.007,0.391,0.012,0.599,0.059c0.376,0.071,0.734,0.259,1.07,0.557
					c-0.194,1.55-0.349,2.868-0.47,3.957c-0.125,1.089-0.231,1.991-0.325,2.706c-0.098,0.834-0.165,1.535-0.201,2.098
					c-0.101,0.802-0.167,1.704-0.176,2.706c-0.015,0.998-0.04,2.072-0.079,3.228c1.011-0.916,2.003-1.952,2.977-3.108
					c0.98-1.166,1.866-2.289,2.663-3.373c0.797-1.083,1.461-2.034,1.995-2.851c0.539-0.815,0.871-1.327,1.001-1.547
					c0.148-0.252,0.317-0.402,0.502-0.453c0.19-0.044,0.359-0.012,0.508,0.1c0.145,0.116,0.239,0.301,0.269,0.558
					c0.034,0.261-0.042,0.579-0.227,0.944c-0.279,0.616-0.722,1.4-1.329,2.373c-0.61,0.965-1.313,1.994-2.127,3.081
					c-0.805,1.087-1.693,2.188-2.649,3.303c-0.962,1.113-1.932,2.099-2.92,2.953c-0.221,0.184-0.463,0.409-0.72,0.678
					c-0.086,1.671-0.162,3.313-0.234,4.921c-0.066,1.607-0.196,3.115-0.386,4.529c-0.163,1.376-0.32,2.587-0.459,3.642
					c-0.144,1.044-0.329,1.925-0.567,2.643c-0.229,0.712-0.544,1.275-0.929,1.685
					C-337.219-1023.2-337.739-1022.938-338.391-1022.816z M-340.795-1027.672c0.12,0.958,0.318,1.66,0.596,2.099
					c0.277,0.44,0.576,0.625,0.904,0.566c0.218-0.041,0.411-0.312,0.586-0.821c0.17-0.509,0.311-1.132,0.412-1.882
					c0.098-0.746,0.186-1.559,0.267-2.424c0.078-0.871,0.136-1.685,0.181-2.451c0.041-0.76,0.066-1.411,0.08-1.952
					c0.016-0.532,0.028-0.84,0.037-0.927c0.016-0.228,0.033-0.465,0.04-0.723c0.009-0.252,0.015-0.535,0.013-0.841
					c-0.504,0.767-0.973,1.542-1.398,2.337c-0.428,0.796-0.784,1.596-1.076,2.407c-0.282,0.806-0.487,1.603-0.608,2.381
					C-340.883-1029.124-340.898-1028.381-340.795-1027.672z M-332.177-1069.025c0.044,0.24,0.013,0.55-0.098,0.92
					c-0.117,0.373-0.288,0.727-0.523,1.065c-0.229,0.337-0.495,0.632-0.801,0.898c-0.3,0.268-0.629,0.434-0.979,0.502
					c-0.298,0.053-0.595-0.046-0.898-0.299c-0.296-0.252-0.477-0.641-0.544-1.16c-0.068-0.354-0.037-0.746,0.093-1.177
					c0.133-0.427,0.319-0.837,0.573-1.223c0.254-0.375,0.545-0.708,0.878-0.979c0.328-0.269,0.652-0.434,0.976-0.495
					c0.463-0.081,0.78,0.08,0.958,0.499C-332.371-1070.058-332.248-1069.571-332.177-1069.025z"/>
				<path fill="#95C11F" d="M-306.713-1056.096c-0.432,1.147-0.954,2.342-1.55,3.585c-0.599,1.247-1.26,2.408-1.989,3.477
					c-0.727,1.076-1.508,1.995-2.35,2.768c-0.835,0.768-1.731,1.242-2.684,1.416c-0.947,0.174-1.687-0.02-2.227-0.578
					c-0.534-0.559-0.869-1.237-0.981-2.028c-0.065-0.348-0.088-0.667-0.068-0.952c0.019-0.284,0.049-0.541,0.087-0.773
					c0.042-0.229,0.09-0.47,0.142-0.721c0.052-0.247,0.089-0.527,0.115-0.84c0.045-0.374-0.006-0.69-0.152-0.959
					c-0.147-0.263-0.311-0.497-0.486-0.693c-0.196,0.319-0.43,0.613-0.697,0.871c-0.281,0.262-0.645,0.432-1.108,0.517
					c-0.32,0.06-0.65-0.044-0.98-0.305c-0.326-0.257-0.533-0.623-0.619-1.081c-0.073-0.382-0.041-0.709,0.089-0.985
					c0.132-0.277,0.302-0.504,0.507-0.683c0.208-0.174,0.426-0.315,0.66-0.413c0.236-0.097,0.431-0.165,0.594-0.191
					c0.083-0.022,0.253-0.039,0.517-0.057c0.264-0.017,0.548-0.028,0.854-0.031c0.833-0.965,1.403-1.808,1.702-2.52
					c0.304-0.714,0.231-1.297-0.213-1.747c-0.285-0.311-0.592-0.444-0.918-0.398c-0.326,0.045-0.651,0.19-0.968,0.43
					c-0.323,0.24-0.624,0.525-0.913,0.862c-0.294,0.333-0.55,0.642-0.776,0.938c-0.444,0.648-0.93,1.397-1.456,2.264
					c-0.525,0.872-0.961,1.585-1.303,2.157c-0.043,0.845-0.076,1.735-0.101,2.662c-0.022,0.82-0.039,1.739-0.058,2.768
					c-0.021,1.024-0.042,2.088-0.066,3.184c-0.146,0.111-0.304,0.209-0.474,0.279c-0.165,0.071-0.318,0.136-0.452,0.186
					c-0.155,0.059-0.314,0.104-0.475,0.132c-0.218,0.039-0.421,0.068-0.614,0.093c-0.192,0.018-0.365-0.017-0.505-0.119
					c-0.145-0.102-0.248-0.286-0.314-0.552c-0.064-0.268-0.056-0.662,0.017-1.18c0.085-0.744,0.187-1.738,0.29-2.977
					c0.11-1.241,0.21-2.593,0.304-4.069c0.095-1.476,0.185-3.013,0.269-4.612c0.084-1.593,0.155-3.125,0.226-4.58
					c0.07-1.455,0.119-2.768,0.139-3.936c0.023-1.166,0.031-2.086,0.021-2.758c-0.049-0.719-0.091-1.416-0.131-2.083
					c-0.046-0.548-0.111-1.089-0.199-1.619c-0.082-0.53-0.189-0.927-0.317-1.182c0.108-0.159,0.276-0.32,0.498-0.474
					c0.226-0.149,0.481-0.283,0.771-0.393c0.285-0.134,0.627-0.27,1.019-0.394c0.45-0.142,0.839-0.227,1.155-0.259
					c0.312-0.029,0.566,0.068,0.743,0.285c0.211,0.239,0.331,0.694,0.353,1.343c0.022,0.656-0.01,1.577-0.099,2.771
					c-0.112,1.537-0.251,2.94-0.42,4.219c-0.179,1.28-0.346,2.479-0.52,3.608c-0.166,1.123-0.334,2.208-0.491,3.262
					c-0.156,1.053-0.275,2.116-0.356,3.195c0.398-0.886,0.922-1.841,1.573-2.874c0.654-1.027,1.439-1.925,2.361-2.685
					c0.982-0.765,1.824-1.217,2.533-1.343c0.863-0.163,1.54,0.015,2.029,0.527c0.485,0.511,0.787,1.166,0.906,1.958
					c0.087,0.627,0.039,1.229-0.152,1.812c-0.187,0.581-0.438,1.132-0.766,1.656c-0.322,0.525-0.687,0.99-1.089,1.395
					c-0.401,0.411-0.739,0.762-1.028,1.035c0.417,0.144,0.806,0.373,1.157,0.687c0.354,0.315,0.567,0.746,0.637,1.294
					c0.111,0.738,0.084,1.408-0.072,2.008c-0.154,0.604-0.191,1.133-0.103,1.597c0.088,0.347,0.214,0.593,0.366,0.731
					c0.15,0.14,0.429,0.173,0.838,0.096c0.731-0.133,1.436-0.583,2.122-1.355c0.682-0.774,1.304-1.628,1.86-2.57
					c0.556-0.944,1.057-1.865,1.509-2.781c0.45-0.908,0.801-1.583,1.053-2.02c0.375-0.574,0.734-0.772,1.093-0.604
					C-306.498-1057.222-306.45-1056.787-306.713-1056.096z"/>
				<path fill="#95C11F" d="M-291.054-1074.701c-0.104,1.704-0.274,3.342-0.502,4.908c-0.232,1.569-0.492,3.045-0.786,4.432
					c-0.289,1.385-0.6,2.654-0.934,3.805c-0.335,1.163-0.631,2.167-0.899,3.026c0.093,2.003,0.379,3.574,0.87,4.719
					c0.488,1.146,1.132,1.645,1.917,1.5c0.65-0.124,1.233-0.537,1.75-1.249c0.51-0.708,0.931-1.543,1.257-2.5
					c0.331-0.96,0.575-1.965,0.728-3.017c0.159-1.049,0.208-1.978,0.146-2.78c-0.544-0.036-1.023-0.195-1.437-0.471
					c-0.413-0.272-0.675-0.695-0.78-1.268c-0.066-0.378-0.027-0.755,0.13-1.136c0.152-0.379,0.356-0.715,0.612-1.013
					c0.254-0.299,0.542-0.549,0.874-0.752c0.325-0.199,0.635-0.324,0.936-0.381c0.461-0.085,0.912,0.131,1.34,0.654
					c0.435,0.528,0.785,1.223,1.058,2.098c1.08-0.227,2.188-0.598,3.326-1.114c1.143-0.519,2.197-1.105,3.164-1.76
					c0.276-0.191,0.512-0.279,0.714-0.258c0.199,0.019,0.346,0.103,0.445,0.254c0.098,0.152,0.125,0.336,0.08,0.554
					c-0.044,0.219-0.177,0.406-0.396,0.557c-0.564,0.467-1.153,0.906-1.761,1.311c-0.613,0.409-1.224,0.769-1.844,1.076
					c-0.613,0.312-1.208,0.576-1.787,0.793c-0.574,0.218-1.109,0.37-1.594,0.459c0.091,1.109-0.034,2.341-0.369,3.704
					c-0.339,1.368-0.815,2.664-1.434,3.882c-0.62,1.222-1.354,2.271-2.211,3.159c-0.863,0.889-1.768,1.418-2.717,1.592
					c-0.299,0.056-0.695,0.086-1.198,0.094c-0.508,0.009-1.035-0.188-1.584-0.591c-0.548-0.403-1.084-1.114-1.605-2.12
					c-0.522-1.014-0.941-2.514-1.25-4.499c-0.218-1.335-0.331-2.769-0.33-4.317c-0.004-1.537,0.048-3.092,0.153-4.647
					c0.105-1.562,0.264-3.083,0.485-4.563c0.216-1.491,0.437-2.833,0.669-4.038c0.223-1.204,0.448-2.223,0.677-3.048
					c0.226-0.823,0.412-1.362,0.562-1.614c0.189-0.342,0.433-0.622,0.73-0.833c0.299-0.203,0.6-0.372,0.895-0.5
					c0.301-0.121,0.586-0.197,0.864-0.216c0.278-0.023,0.471-0.019,0.591,0.015c0.183,0.081,0.343,0.667,0.473,1.762
					C-290.898-1077.937-290.906-1076.493-291.054-1074.701z"/>
				<path fill="#95C11F" d="M-261.928-1064.714c-0.595,1.346-1.304,2.67-2.128,3.987c-0.818,1.315-1.73,2.52-2.719,3.61
					c-0.987,1.096-2.038,2.024-3.142,2.787c-1.105,0.764-2.233,1.248-3.367,1.459c-0.599,0.106-1.27,0.087-2.014-0.071
					c-0.74-0.157-1.453-0.481-2.129-0.974c-0.684-0.492-1.281-1.178-1.787-2.066c-0.516-0.893-0.832-2.023-0.949-3.403
					c-0.091-1.13,0.035-2.367,0.396-3.707c0.355-1.341,0.864-2.607,1.527-3.794c0.665-1.186,1.472-2.215,2.416-3.093
					c0.945-0.872,1.964-1.408,3.047-1.608c1.028-0.191,1.821-0.068,2.379,0.362c0.553,0.43,0.874,1.023,0.964,1.797
					c0.073,0.853-0.027,1.67-0.287,2.445c-0.266,0.784-0.617,1.502-1.052,2.175c-0.44,0.668-0.919,1.286-1.446,1.863
					c-0.523,0.569-1.022,1.099-1.495,1.574c-0.521,0.52-1.02,1.009-1.495,1.478c-0.478,0.461-0.888,0.882-1.244,1.253
					c0.153,0.672,0.381,1.219,0.686,1.646c0.298,0.422,0.639,0.738,1.014,0.966c0.382,0.225,0.787,0.356,1.234,0.401
					c0.439,0.047,0.882,0.029,1.314-0.053c0.922-0.167,1.831-0.635,2.727-1.401c0.892-0.772,1.749-1.651,2.559-2.661
					c0.81-1.001,1.546-2.026,2.21-3.074c0.66-1.047,1.202-1.945,1.632-2.693c0.141-0.253,0.313-0.417,0.513-0.497
					c0.197-0.08,0.363-0.079,0.502-0.008c0.139,0.076,0.231,0.22,0.274,0.454C-261.747-1065.327-261.791-1065.045-261.928-1064.714z
					 M-273.49-1069.057c-0.323,0.059-0.68,0.292-1.068,0.7c-0.39,0.406-0.745,0.955-1.064,1.644
					c-0.322,0.689-0.59,1.512-0.806,2.462c-0.219,0.951-0.319,2.013-0.299,3.187c0.283-0.302,0.584-0.62,0.918-0.948
					c0.334-0.325,0.664-0.672,0.989-1.041c0.998-1.109,1.667-2.043,2-2.811c0.336-0.761,0.488-1.389,0.452-1.885
					c-0.038-0.528-0.162-0.891-0.368-1.096C-272.939-1069.041-273.195-1069.113-273.49-1069.057z"/>
				<path fill="#95C11F" d="M-250.189-1068.763c0.081-0.183,0.207-0.311,0.372-0.379c0.169-0.079,0.314-0.084,0.44-0.022
					c0.122,0.06,0.208,0.185,0.255,0.376c0.048,0.188,0.023,0.458-0.08,0.809c-0.348,1.136-0.861,2.372-1.522,3.729
					c-0.665,1.353-1.386,2.645-2.165,3.87c-0.789,1.22-1.575,2.256-2.375,3.103c-0.798,0.85-1.507,1.333-2.127,1.445
					c-0.894,0.161-1.676,0.126-2.333-0.121c-0.667-0.24-1.212-0.585-1.644-1.041c-0.433-0.453-0.779-0.973-1.026-1.559
					c-0.245-0.584-0.391-1.135-0.432-1.665c-0.051-0.441-0.1-1.232-0.141-2.386c-0.046-1.151-0.069-2.499-0.069-4.025
					c-0.003-1.527,0.014-3.173,0.039-4.93c0.027-1.757,0.085-3.456,0.178-5.096c-0.453,0.143-0.906,0.276-1.358,0.417
					c-0.448,0.139-0.863,0.243-1.242,0.313c-0.867,0.157-1.707,0.209-2.516,0.146c-0.812-0.061-1.419-0.152-1.833-0.269
					c-0.237-0.07-0.362-0.208-0.373-0.419c-0.008-0.207,0.035-0.424,0.131-0.656c0.098-0.23,0.233-0.433,0.41-0.618
					c0.173-0.191,0.344-0.296,0.509-0.326c0.525-0.042,1.088-0.097,1.691-0.165c0.605-0.074,1.256-0.182,1.955-0.339
					c0.512-0.123,1-0.255,1.463-0.393c0.466-0.143,0.915-0.296,1.368-0.465c0.113-1.365,0.25-2.559,0.408-3.587
					c0.164-1.023,0.346-1.748,0.547-2.182c0.057-0.149,0.217-0.297,0.488-0.445c0.268-0.146,0.557-0.27,0.875-0.371
					c0.317-0.101,0.631-0.158,0.934-0.173c0.305-0.014,0.542,0.049,0.704,0.187c0.176,0.193,0.333,0.738,0.472,1.637
					c0.136,0.899,0.196,2.063,0.184,3.498c1.137-0.209,2.159-0.337,3.062-0.376c0.901-0.039,1.679-0.042,2.332-0.01
					c0.65,0.038,1.18,0.095,1.584,0.174c0.409,0.079,0.711,0.125,0.913,0.148c0.201,0.019,0.326,0.137,0.38,0.35
					c0.052,0.214,0.055,0.448,0.004,0.692c-0.055,0.247-0.173,0.475-0.364,0.674c-0.188,0.207-0.419,0.306-0.702,0.299
					c-0.271,0.026-0.587,0.028-0.94,0.008c-0.357-0.018-0.774-0.012-1.259,0.02c-0.487,0.032-1.055,0.08-1.719,0.148
					c-0.659,0.066-1.421,0.18-2.293,0.338c-0.16,0.028-0.343,0.074-0.542,0.121c-0.2,0.053-0.411,0.096-0.627,0.138
					c-0.029,0.451-0.053,0.899-0.066,1.339c-0.023,0.436-0.067,0.898-0.147,1.387c-0.153,1.151-0.342,2.409-0.568,3.766
					c-0.204,1.184-0.456,2.545-0.761,4.087c-0.305,1.546-0.662,3.194-1.067,4.951c0.052,1.192,0.235,2.078,0.552,2.652
					c0.312,0.574,0.644,0.97,0.997,1.185c0.405,0.231,0.87,0.315,1.388,0.247c0.417-0.019,0.884-0.255,1.409-0.7
					c0.518-0.445,1.038-1.007,1.554-1.694c0.52-0.685,1.034-1.425,1.547-2.221c0.514-0.794,0.979-1.568,1.403-2.316
					c0.422-0.75,0.789-1.429,1.096-2.029C-250.528-1068.091-250.312-1068.518-250.189-1068.763z"/>
				<path fill="#95C11F" d="M-252.316-1057.943c-0.136,0.333-0.312,0.566-0.523,0.703c-0.213,0.132-0.417,0.186-0.606,0.155
					c-0.184-0.04-0.325-0.159-0.421-0.367c-0.095-0.208-0.09-0.49,0.016-0.841c0.053-0.177,0.164-0.575,0.343-1.201
					c0.183-0.622,0.393-1.368,0.638-2.241c0.246-0.873,0.514-1.813,0.805-2.838c0.286-1.022,0.565-1.987,0.832-2.907
					c0.267-0.917,0.51-1.74,0.744-2.471c0.231-0.727,0.398-1.256,0.505-1.587c-0.349-0.209-0.587-0.373-0.714-0.476
					c-0.136-0.102-0.264-0.351-0.393-0.748c-0.119-0.341-0.123-0.818-0.012-1.428c0.115-0.609,0.3-1.206,0.551-1.798
					c0.255-0.597,0.572-1.125,0.932-1.583c0.362-0.46,0.75-0.729,1.156-0.802c0.759-0.142,1.339,0.009,1.742,0.437
					c0.395,0.433,0.674,0.902,0.825,1.405c0.119,0.343,0.174,0.796,0.163,1.358c-0.008,0.559-0.119,1.085-0.34,1.576
					c0.094,0.034,0.213,0.078,0.361,0.119c0.147,0.045,0.369,0.042,0.667-0.016c0.434-0.078,0.737-0.161,0.899-0.247
					c0.17-0.088,0.441-0.169,0.818-0.24c0.461-0.078,0.864-0.035,1.204,0.136c0.342,0.18,0.641,0.414,0.889,0.72
					c0.254,0.307,0.463,0.646,0.63,1.021c0.167,0.377,0.293,0.726,0.38,1.042c0.205,0.664,0.162,1.402-0.141,2.215
					c-0.297,0.81-0.677,1.707-1.144,2.689c-0.281,0.614-0.549,1.291-0.804,2.04c-0.251,0.75-0.307,1.387-0.151,1.918
					c0.123,0.344,0.27,0.612,0.444,0.803c0.173,0.189,0.575,0.231,1.195,0.116c0.462-0.083,0.943-0.347,1.436-0.794
					c0.491-0.438,0.979-0.975,1.466-1.611c0.484-0.635,0.958-1.323,1.408-2.066c0.452-0.74,0.867-1.46,1.24-2.159
					c0.379-0.706,0.69-1.326,0.938-1.877c0.25-0.549,0.438-0.949,0.559-1.197c0.096-0.237,0.245-0.42,0.448-0.54
					c0.202-0.124,0.39-0.158,0.57-0.107c0.174,0.053,0.306,0.197,0.391,0.43c0.086,0.238,0.045,0.582-0.125,1.033
					c-0.116,0.299-0.311,0.787-0.594,1.455c-0.281,0.67-0.638,1.418-1.057,2.253c-0.42,0.832-0.902,1.699-1.437,2.6
					c-0.531,0.894-1.114,1.73-1.744,2.501c-0.629,0.78-1.279,1.436-1.95,1.982c-0.672,0.541-1.346,0.875-2.022,1
					c-0.705,0.131-1.314,0.103-1.822-0.085c-0.512-0.182-0.948-0.452-1.307-0.788c-0.351-0.341-0.639-0.739-0.845-1.189
					c-0.209-0.457-0.336-0.883-0.387-1.292c-0.03-0.335-0.008-0.696,0.075-1.092c0.083-0.39,0.187-0.804,0.317-1.232
					c0.134-0.43,0.28-0.866,0.436-1.301c0.157-0.436,0.298-0.862,0.418-1.276c0.315-0.869,0.562-1.61,0.746-2.216
					c0.181-0.61,0.239-1.102,0.165-1.482c-0.043-0.245-0.139-0.452-0.28-0.623c-0.142-0.168-0.335-0.233-0.58-0.189
					c-0.161,0.033-0.273,0.061-0.336,0.087c-0.068,0.023-0.14,0.043-0.206,0.053c-0.067,0.016-0.157,0.042-0.277,0.076
					c-0.118,0.039-0.303,0.076-0.545,0.122c-0.353,0.063-0.659,0.064-0.927,0c-0.263-0.063-0.509-0.103-0.736-0.112
					c-0.072,0.205-0.242,0.659-0.506,1.354c-0.268,0.697-0.572,1.507-0.919,2.438c-0.345,0.935-0.712,1.911-1.097,2.934
					c-0.385,1.025-0.752,1.983-1.093,2.871c-0.342,0.888-0.628,1.642-0.865,2.263
					C-252.111-1058.441-252.256-1058.069-252.316-1057.943z"/>
				<path fill="#95C11F" d="M-222.971-1069.819c-0.081,1.08-0.27,2.11-0.568,3.089c-0.299,0.98-0.703,1.854-1.219,2.618
					c-0.519,0.775-1.143,1.409-1.876,1.926c-0.734,0.514-1.573,0.859-2.52,1.03c-1.115,0.205-2.03,0.129-2.752-0.226
					c-0.727-0.358-1.311-0.861-1.751-1.51c-0.444-0.645-0.771-1.382-1-2.213c-0.221-0.828-0.397-1.609-0.531-2.337
					c-0.097-0.517-0.14-1.099-0.134-1.742c0.007-0.648,0.063-1.315,0.159-2.004c0.092-0.694,0.253-1.393,0.473-2.109
					c0.222-0.71,0.511-1.379,0.871-2.013c0.076-0.488,0.256-0.937,0.53-1.354c0.275-0.413,0.609-0.776,1.017-1.091
					c0.4-0.312,0.853-0.58,1.35-0.793c0.492-0.217,0.981-0.37,1.472-0.461c0.079-0.016,0.154-0.015,0.227-0.001
					c0.07,0.016,0.153,0.03,0.24,0.041c0.356-0.037,0.824,0.018,1.397,0.165c0.574,0.144,1.158,0.416,1.747,0.812
					c0.586,0.396,1.127,0.934,1.622,1.614c0.486,0.681,0.829,1.552,1.023,2.61c0.04,0.214,0.076,0.481,0.105,0.797
					c0.033,0.317,0.052,0.594,0.065,0.811c0.582-0.359,1.175-0.777,1.786-1.254c0.614-0.478,1.204-0.968,1.771-1.482
					c0.564-0.506,1.076-1.021,1.544-1.526c0.47-0.505,0.836-0.949,1.099-1.338c0.227-0.289,0.435-0.471,0.616-0.532
					c0.186-0.061,0.333-0.033,0.439,0.088c0.104,0.124,0.157,0.305,0.146,0.559c-0.009,0.259-0.112,0.556-0.301,0.9
					c-0.103,0.187-0.39,0.574-0.856,1.164c-0.465,0.592-1.026,1.242-1.681,1.953c-0.655,0.71-1.379,1.414-2.176,2.123
					C-221.43-1070.799-222.209-1070.241-222.971-1069.819z M-232.265-1067.097c0.089,0.485,0.199,0.959,0.345,1.423
					c0.136,0.469,0.324,0.863,0.556,1.205c0.23,0.333,0.5,0.595,0.817,0.771c0.312,0.183,0.687,0.232,1.12,0.153
					c0.489-0.091,0.915-0.287,1.279-0.594c0.362-0.301,0.676-0.669,0.935-1.092c0.258-0.428,0.467-0.904,0.644-1.427
					c0.166-0.519,0.299-1.051,0.396-1.604c-0.188,0.062-0.365,0.116-0.536,0.165c-0.175,0.047-0.373,0.085-0.591,0.126
					c-1.027,0.187-1.974,0.05-2.827-0.423c-0.86-0.476-1.58-1.146-2.163-2.021c-0.057,0.598-0.09,1.181-0.099,1.742
					C-232.401-1068.112-232.356-1067.586-232.265-1067.097z M-230.98-1074.734c-0.039,0.256-0.029,0.523,0.019,0.797
					c0.078,0.429,0.191,0.879,0.333,1.344c0.142,0.462,0.357,0.865,0.64,1.207c0.291,0.339,0.69,0.594,1.212,0.767
					c0.522,0.17,1.204,0.175,2.043,0.021c0.138-0.026,0.273-0.056,0.402-0.094c0.134-0.042,0.265-0.083,0.398-0.138
					c0.018-0.365,0.033-0.7,0.046-0.996c0.017-0.296,0.004-0.553-0.036-0.769c-0.041-0.524-0.137-1.049-0.294-1.587
					c-0.151-0.531-0.337-1.008-0.574-1.428c-0.232-0.417-0.486-0.75-0.771-0.99c-0.283-0.247-0.59-0.337-0.913-0.277
					c-0.515,0.098-0.984,0.33-1.408,0.705C-230.301-1075.807-230.671-1075.326-230.98-1074.734z"/>
				<path fill="#95C11F" d="M-198.056-1076.084c-0.437,1.145-0.952,2.342-1.551,3.584c-0.596,1.25-1.262,2.408-1.989,3.478
					c-0.727,1.073-1.51,1.994-2.348,2.766c-0.839,0.771-1.735,1.242-2.683,1.417c-0.951,0.176-1.69-0.02-2.229-0.576
					c-0.536-0.562-0.87-1.238-0.981-2.028c-0.065-0.353-0.089-0.67-0.068-0.952c0.016-0.286,0.044-0.545,0.086-0.774
					c0.042-0.23,0.088-0.475,0.142-0.719c0.049-0.249,0.09-0.533,0.117-0.845c0.043-0.37-0.007-0.689-0.155-0.959
					c-0.147-0.261-0.31-0.497-0.482-0.685c-0.196,0.313-0.434,0.604-0.701,0.863c-0.281,0.265-0.644,0.436-1.104,0.52
					c-0.327,0.058-0.654-0.042-0.982-0.304c-0.328-0.258-0.537-0.623-0.621-1.083c-0.069-0.378-0.042-0.706,0.094-0.982
					c0.131-0.279,0.297-0.504,0.505-0.683c0.203-0.177,0.422-0.314,0.66-0.413c0.234-0.099,0.432-0.167,0.594-0.195
					c0.082-0.017,0.25-0.034,0.513-0.053c0.264-0.02,0.548-0.031,0.856-0.031c0.835-0.963,1.403-1.812,1.705-2.52
					c0.301-0.712,0.226-1.298-0.216-1.749c-0.289-0.311-0.59-0.444-0.919-0.398c-0.325,0.046-0.651,0.189-0.967,0.431
					c-0.325,0.241-0.622,0.527-0.913,0.86c-0.292,0.332-0.548,0.646-0.779,0.937c-0.441,0.651-0.927,1.403-1.454,2.268
					c-0.523,0.868-0.959,1.59-1.303,2.155c-0.045,0.846-0.076,1.74-0.101,2.666c-0.021,0.816-0.035,1.736-0.058,2.766
					c-0.02,1.027-0.042,2.089-0.066,3.187c-0.146,0.109-0.304,0.204-0.473,0.275c-0.166,0.075-0.319,0.137-0.454,0.189
					c-0.151,0.057-0.313,0.1-0.476,0.13c-0.213,0.039-0.419,0.074-0.614,0.094c-0.193,0.018-0.364-0.017-0.504-0.122
					c-0.146-0.097-0.247-0.284-0.315-0.551c-0.06-0.27-0.055-0.66,0.017-1.18c0.088-0.742,0.185-1.735,0.291-2.972
					c0.111-1.245,0.21-2.598,0.305-4.075c0.092-1.473,0.183-3.013,0.266-4.606c0.086-1.598,0.158-3.131,0.228-4.584
					c0.072-1.456,0.118-2.768,0.14-3.938c0.026-1.166,0.032-2.084,0.02-2.756c-0.048-0.718-0.091-1.418-0.127-2.081
					c-0.046-0.549-0.114-1.094-0.2-1.62c-0.082-0.53-0.19-0.925-0.319-1.184c0.109-0.16,0.28-0.319,0.502-0.475
					c0.222-0.146,0.478-0.28,0.771-0.39c0.281-0.134,0.623-0.266,1.016-0.397c0.45-0.142,0.835-0.225,1.153-0.255
					c0.316-0.029,0.565,0.067,0.745,0.288c0.214,0.237,0.332,0.689,0.354,1.343c0.021,0.653-0.011,1.575-0.099,2.767
					c-0.112,1.539-0.253,2.943-0.419,4.219c-0.18,1.279-0.348,2.481-0.521,3.607c-0.168,1.124-0.332,2.21-0.488,3.265
					c-0.158,1.052-0.279,2.116-0.358,3.196c0.4-0.886,0.925-1.843,1.572-2.875c0.655-1.031,1.445-1.924,2.361-2.682
					c0.985-0.771,1.826-1.22,2.534-1.349c0.864-0.16,1.542,0.017,2.029,0.53c0.484,0.512,0.787,1.166,0.906,1.956
					c0.088,0.629,0.037,1.231-0.15,1.816c-0.191,0.58-0.444,1.128-0.767,1.652c-0.327,0.522-0.687,0.99-1.088,1.399
					c-0.403,0.408-0.744,0.753-1.031,1.031c0.418,0.146,0.805,0.376,1.154,0.691c0.355,0.312,0.568,0.739,0.643,1.292
					c0.105,0.736,0.081,1.407-0.076,2.007c-0.155,0.607-0.19,1.136-0.103,1.596c0.088,0.351,0.214,0.595,0.366,0.73
					c0.15,0.142,0.43,0.176,0.84,0.097c0.731-0.131,1.438-0.581,2.124-1.355c0.68-0.768,1.302-1.628,1.855-2.572
					c0.556-0.941,1.06-1.864,1.51-2.778c0.45-0.905,0.804-1.581,1.057-2.016c0.371-0.578,0.732-0.776,1.092-0.609
					C-197.838-1077.208-197.794-1076.776-198.056-1076.084z"/>
				<path fill="#95C11F" d="M-179.721-1079.458c-0.433,1.146-0.953,2.34-1.551,3.588c-0.592,1.245-1.259,2.404-1.984,3.474
					c-0.731,1.075-1.509,1.998-2.351,2.765c-0.837,0.771-1.73,1.244-2.682,1.418c-0.948,0.175-1.688-0.02-2.229-0.578
					c-0.535-0.559-0.868-1.232-0.981-2.024c-0.066-0.352-0.09-0.673-0.071-0.953c0.02-0.286,0.049-0.542,0.093-0.775
					c0.036-0.231,0.081-0.473,0.136-0.72c0.052-0.247,0.092-0.529,0.12-0.842c0.043-0.372-0.009-0.692-0.156-0.96
					c-0.145-0.262-0.312-0.496-0.486-0.688c-0.196,0.315-0.429,0.607-0.703,0.866c-0.274,0.262-0.642,0.432-1.102,0.519
					c-0.325,0.058-0.649-0.041-0.981-0.304c-0.327-0.261-0.531-0.626-0.617-1.085c-0.074-0.375-0.043-0.705,0.09-0.982
					c0.13-0.279,0.3-0.501,0.504-0.684c0.205-0.177,0.429-0.31,0.664-0.412c0.231-0.099,0.43-0.165,0.594-0.191
					c0.082-0.016,0.25-0.034,0.515-0.054c0.262-0.019,0.542-0.031,0.855-0.031c0.831-0.965,1.4-1.809,1.702-2.521
					c0.301-0.711,0.225-1.299-0.215-1.75c-0.284-0.31-0.591-0.441-0.917-0.398c-0.33,0.048-0.651,0.195-0.97,0.433
					c-0.321,0.24-0.624,0.526-0.913,0.863c-0.293,0.331-0.548,0.644-0.772,0.934c-0.445,0.652-0.929,1.403-1.456,2.271
					c-0.527,0.865-0.963,1.585-1.304,2.15c-0.045,0.851-0.073,1.741-0.1,2.667c-0.021,0.816-0.041,1.737-0.06,2.768
					c-0.02,1.024-0.045,2.085-0.068,3.183c-0.142,0.114-0.301,0.207-0.475,0.278c-0.167,0.074-0.314,0.134-0.447,0.188
					c-0.158,0.06-0.319,0.1-0.477,0.132c-0.218,0.039-0.422,0.069-0.615,0.091c-0.192,0.017-0.362-0.017-0.505-0.118
					c-0.147-0.098-0.246-0.288-0.314-0.554c-0.063-0.272-0.06-0.661,0.013-1.18c0.089-0.744,0.189-1.734,0.298-2.971
					c0.105-1.244,0.205-2.6,0.298-4.074c0.092-1.473,0.188-3.014,0.269-4.612c0.084-1.594,0.157-3.126,0.228-4.581
					c0.071-1.454,0.116-2.766,0.136-3.938c0.024-1.166,0.034-2.083,0.021-2.755c-0.047-0.719-0.09-1.414-0.13-2.078
					c-0.047-0.555-0.112-1.094-0.197-1.624c-0.081-0.531-0.19-0.923-0.32-1.183c0.109-0.16,0.279-0.318,0.499-0.473
					c0.229-0.149,0.484-0.283,0.77-0.391c0.287-0.133,0.625-0.269,1.021-0.397c0.447-0.143,0.836-0.226,1.152-0.254
					c0.318-0.032,0.562,0.069,0.743,0.288c0.216,0.236,0.33,0.686,0.356,1.34c0.022,0.657-0.017,1.577-0.101,2.77
					c-0.115,1.538-0.253,2.941-0.42,4.216c-0.174,1.278-0.346,2.483-0.519,3.611c-0.167,1.122-0.333,2.208-0.491,3.261
					c-0.156,1.05-0.272,2.12-0.358,3.194c0.399-0.882,0.923-1.842,1.576-2.87c0.652-1.032,1.439-1.926,2.363-2.688
					c0.979-0.768,1.819-1.217,2.528-1.346c0.869-0.159,1.542,0.017,2.032,0.531c0.485,0.512,0.785,1.165,0.906,1.954
					c0.086,0.631,0.04,1.231-0.154,1.819c-0.186,0.578-0.44,1.127-0.765,1.651c-0.324,0.523-0.688,0.989-1.087,1.401
					c-0.406,0.407-0.739,0.753-1.031,1.03c0.417,0.146,0.806,0.375,1.157,0.689c0.355,0.312,0.566,0.74,0.64,1.294
					c0.108,0.731,0.081,1.402-0.075,2.008c-0.154,0.602-0.19,1.132-0.103,1.596c0.087,0.347,0.211,0.594,0.364,0.729
					c0.151,0.141,0.433,0.174,0.838,0.097c0.729-0.131,1.44-0.584,2.125-1.354c0.683-0.772,1.305-1.631,1.859-2.574
					c0.558-0.944,1.056-1.866,1.508-2.78c0.451-0.905,0.8-1.58,1.058-2.019c0.368-0.575,0.73-0.774,1.088-0.605
					C-179.502-1080.582-179.454-1080.148-179.721-1079.458z"/>
				<path fill="#95C11F" d="M-163.886-1082.745c-0.592,1.339-1.304,2.669-2.127,3.982c-0.821,1.315-1.727,2.521-2.721,3.61
					c-0.986,1.093-2.033,2.022-3.142,2.788c-1.105,0.763-2.229,1.25-3.37,1.457c-0.595,0.113-1.267,0.088-2.011-0.065
					c-0.742-0.158-1.452-0.482-2.132-0.976c-0.679-0.494-1.276-1.18-1.787-2.068c-0.514-0.891-0.829-2.024-0.945-3.402
					c-0.094-1.13,0.033-2.367,0.394-3.705c0.358-1.341,0.865-2.607,1.533-3.791c0.659-1.192,1.467-2.22,2.415-3.096
					c0.942-0.874,1.958-1.414,3.044-1.609c1.028-0.19,1.821-0.071,2.378,0.358c0.553,0.43,0.875,1.028,0.963,1.799
					c0.072,0.853-0.026,1.671-0.289,2.449c-0.263,0.779-0.617,1.501-1.052,2.168c-0.437,0.672-0.919,1.294-1.443,1.862
					c-0.525,0.575-1.024,1.101-1.496,1.58c-0.52,0.519-1.022,1.01-1.494,1.473c-0.48,0.468-0.889,0.888-1.246,1.259
					c0.153,0.673,0.383,1.223,0.686,1.641c0.297,0.423,0.641,0.739,1.018,0.967c0.378,0.226,0.786,0.356,1.228,0.404
					c0.442,0.045,0.884,0.028,1.316-0.05c0.921-0.173,1.83-0.641,2.725-1.409c0.895-0.765,1.75-1.651,2.56-2.654
					c0.809-1.007,1.546-2.027,2.21-3.077c0.661-1.045,1.205-1.943,1.632-2.697c0.146-0.247,0.312-0.416,0.513-0.492
					c0.198-0.078,0.366-0.081,0.503-0.007c0.138,0.073,0.231,0.219,0.274,0.449C-163.705-1083.362-163.752-1083.08-163.886-1082.745
					z M-175.45-1087.094c-0.322,0.06-0.676,0.297-1.069,0.699c-0.388,0.412-0.741,0.959-1.06,1.648
					c-0.321,0.688-0.594,1.512-0.809,2.461c-0.217,0.949-0.317,2.011-0.298,3.19c0.287-0.307,0.583-0.627,0.924-0.95
					c0.328-0.331,0.656-0.676,0.982-1.042c0.999-1.11,1.667-2.045,2.001-2.811c0.339-0.763,0.49-1.391,0.452-1.889
					c-0.037-0.525-0.16-0.888-0.366-1.087C-174.897-1087.075-175.153-1087.149-175.45-1087.094z"/>
				<path fill="#95C11F" d="M-152.999-1074.958c-0.623,0.115-1.174,0.099-1.664-0.044c-0.494-0.151-0.908-0.394-1.251-0.72
					c-0.336-0.33-0.595-0.738-0.771-1.225c-0.172-0.488-0.243-1.027-0.213-1.618c0.014-0.397,0.053-0.929,0.127-1.601
					c0.074-0.675,0.142-1.404,0.209-2.185c0.065-0.786,0.12-1.56,0.162-2.339c0.032-0.778,0.023-1.477-0.033-2.096
					c-0.06-0.625-0.177-1.116-0.357-1.49c-0.185-0.372-0.45-0.526-0.804-0.463c-0.433,0.079-0.851,0.304-1.262,0.671
					c-0.404,0.372-0.803,0.846-1.186,1.418c-0.386,0.577-0.758,1.23-1.119,1.951c-0.357,0.724-0.697,1.47-1.036,2.231
					c-0.073,0.966-0.129,1.81-0.164,2.533c-0.035,0.718-0.063,1.37-0.084,1.945c-0.02,0.58-0.049,1.087-0.08,1.532
					c-0.029,0.437-0.046,0.856-0.061,1.25c-0.03,0.287-0.229,0.597-0.585,0.925c-0.36,0.33-0.756,0.624-1.187,0.873
					c-0.431,0.249-0.816,0.402-1.157,0.464c-0.337,0.062-0.501-0.035-0.491-0.291c-0.002-0.166,0.02-0.546,0.065-1.141
					c0.042-0.598,0.093-1.303,0.151-2.113c0.068-0.808,0.122-1.665,0.18-2.579c0.057-0.906,0.111-1.768,0.152-2.586
					c0.023-0.651,0.046-1.369,0.068-2.158c0.015-0.672,0.046-1.464,0.091-2.376c0.041-0.901,0.104-1.89,0.188-2.972
					c0.153-0.198,0.33-0.366,0.516-0.497c0.188-0.135,0.382-0.244,0.591-0.339c0.201-0.122,0.42-0.219,0.662-0.288
					c0.216-0.043,0.435-0.068,0.657-0.083c0.195-0.007,0.396,0.006,0.612,0.037c0.221,0.029,0.424,0.097,0.608,0.202
					c-0.049,0.206-0.091,0.488-0.135,0.841c-0.051,0.367-0.092,0.741-0.131,1.143c-0.031,0.451-0.08,0.925-0.16,1.415
					c0.263-0.549,0.571-1.12,0.928-1.702c0.354-0.58,0.757-1.128,1.214-1.632c0.453-0.501,0.952-0.94,1.502-1.307
					c0.544-0.368,1.133-0.606,1.76-0.72c0.514-0.097,1.002-0.032,1.463,0.189c0.463,0.226,0.859,0.578,1.186,1.061
					c0.324,0.492,0.582,1.099,0.757,1.821c0.171,0.722,0.215,1.544,0.133,2.456l-0.116,1.875c-0.034,0.591-0.083,1.292-0.144,2.105
					c-0.061,0.808-0.156,1.702-0.282,2.678c-0.055,0.622-0.021,1.153,0.1,1.578c0.119,0.426,0.425,0.597,0.913,0.506
					c0.488-0.09,1.046-0.501,1.688-1.238c0.637-0.727,1.25-1.587,1.86-2.572c0.605-0.972,1.168-1.968,1.679-2.977
					c0.515-1.006,0.9-1.808,1.155-2.415c0.175-0.396,0.368-0.669,0.562-0.82c0.197-0.145,0.364-0.191,0.503-0.135
					c0.136,0.061,0.232,0.233,0.285,0.517c0.049,0.281,0.01,0.665-0.129,1.138c-0.116,0.413-0.322,0.967-0.594,1.664
					c-0.283,0.695-0.625,1.444-1.039,2.249c-0.415,0.808-0.865,1.627-1.354,2.46c-0.497,0.831-1.026,1.603-1.597,2.309
					c-0.569,0.709-1.149,1.308-1.746,1.795C-151.802-1075.362-152.397-1075.062-152.999-1074.958z"/>
			</g>
		</g>
	</g>
</g>
</svg>
